<svg xmlns="http://www.w3.org/2000/svg" width="24" height="25" viewBox="0 0 24 25" fill="none">
  <path d="M21.7305 14.6693L20.1861 13.3567C20.2592 12.9113 20.2969 12.4566 20.2969 12.0019C20.2969 11.5472 20.2592 11.0925 20.1861 10.6471L21.7305 9.33453C21.847 9.2354 21.9304 9.10336 21.9696 8.95598C22.0087 8.8086 22.0019 8.65286 21.9498 8.50947L21.9286 8.44853C21.5034 7.26726 20.8667 6.1722 20.0493 5.21627L20.0069 5.16705C19.9077 5.05115 19.7756 4.96783 19.6278 4.92808C19.4801 4.88833 19.3237 4.89402 19.1793 4.94438L17.2623 5.62177C16.5549 5.04517 15.765 4.59045 14.9114 4.27168L14.5412 2.27935C14.5133 2.12944 14.4401 1.99152 14.3315 1.88393C14.2228 1.77633 14.0838 1.70415 13.9328 1.67697L13.8692 1.66525C12.6407 1.44492 11.3486 1.44492 10.1201 1.66525L10.0564 1.67697C9.90549 1.70415 9.76647 1.77633 9.65781 1.88393C9.54915 1.99152 9.47599 2.12944 9.44806 2.27935L9.07551 4.28105C8.22875 4.59989 7.4402 5.05437 6.74115 5.62646L4.81001 4.94438C4.66562 4.89362 4.50911 4.88773 4.36128 4.9275C4.21345 4.96728 4.08129 5.05083 3.98237 5.16705L3.93993 5.21627C3.12349 6.17288 2.48691 7.26775 2.06066 8.44853L2.03943 8.50947C1.93333 8.80246 2.02057 9.13061 2.25872 9.33453L3.82203 10.6612C3.74894 11.1018 3.71357 11.5519 3.71357 11.9996C3.71357 12.4496 3.74894 12.8996 3.82203 13.3379L2.25872 14.6646C2.14223 14.7637 2.05886 14.8958 2.01968 15.0431C1.98051 15.1905 1.9874 15.3463 2.03943 15.4896L2.06066 15.5506C2.48744 16.7319 3.11937 17.8218 3.93993 18.7828L3.98237 18.8321C4.08153 18.948 4.21369 19.0313 4.36144 19.071C4.50918 19.1108 4.66558 19.1051 4.81001 19.0547L6.74115 18.3727C7.44382 18.9469 8.22901 19.4016 9.07551 19.7181L9.44806 21.7198C9.47599 21.8697 9.54915 22.0076 9.65781 22.1152C9.76647 22.2228 9.90549 22.295 10.0564 22.3221L10.1201 22.3339C11.3598 22.5554 12.6294 22.5554 13.8692 22.3339L13.9328 22.3221C14.0838 22.295 14.2228 22.2228 14.3315 22.1152C14.4401 22.0076 14.5133 21.8697 14.5412 21.7198L14.9114 19.7274C15.7646 19.4095 16.559 18.9533 17.2623 18.3773L19.1793 19.0547C19.3236 19.1055 19.4801 19.1114 19.628 19.0716C19.7758 19.0318 19.908 18.9483 20.0069 18.8321L20.0493 18.7828C20.8699 17.8195 21.5018 16.7319 21.9286 15.5506L21.9498 15.4896C22.0559 15.2013 21.9687 14.8732 21.7305 14.6693ZM18.512 10.9237C18.5709 11.2776 18.6016 11.6409 18.6016 12.0042C18.6016 12.3676 18.5709 12.7309 18.512 13.0848L18.3563 14.0247L20.1177 15.5225C19.8507 16.134 19.5136 16.7128 19.1132 17.2476L16.9251 16.4764L16.1847 17.0812C15.6211 17.5406 14.9939 17.9015 14.3148 18.1547L13.4165 18.4899L12.9944 20.7634C12.3284 20.8385 11.6561 20.8385 10.9901 20.7634L10.5681 18.4852L9.67678 18.1453C9.00477 17.8922 8.37992 17.5312 7.82109 17.0741L7.0807 16.4671L4.87839 17.2452C4.47754 16.7085 4.14271 16.1295 3.87391 15.5201L5.65415 14.0083L5.50088 13.0707C5.44429 12.7215 5.41364 12.3605 5.41364 12.0042C5.41364 11.6456 5.44193 11.287 5.50088 10.9378L5.65415 10.0002L3.87391 8.48838C4.14035 7.87661 4.47754 7.30001 4.87839 6.76326L7.0807 7.54143L7.82109 6.93436C8.37992 6.4773 9.00477 6.11634 9.67678 5.86319L10.5704 5.52801L10.9925 3.24973C11.6551 3.17473 12.3318 3.17473 12.9968 3.24973L13.4188 5.52333L14.3172 5.85851C14.9939 6.11165 15.6235 6.47261 16.187 6.93202L16.9274 7.53675L19.1156 6.7656C19.5164 7.30236 19.8513 7.8813 20.1201 8.49072L18.3587 9.98848L18.512 10.9237ZM11.997 7.64457C9.70508 7.64457 7.84702 9.49157 7.84702 11.7699C7.84702 14.0481 9.70508 15.8951 11.997 15.8951C14.2889 15.8951 16.147 14.0481 16.147 11.7699C16.147 9.49157 14.2889 7.64457 11.997 7.64457ZM13.8645 13.6262C13.6195 13.8704 13.3284 14.064 13.0079 14.196C12.6875 14.3279 12.3439 14.3956 11.997 14.395C11.292 14.395 10.6294 14.1208 10.1295 13.6262C9.88386 13.3828 9.68907 13.0934 9.55634 12.7748C9.42361 12.4562 9.35556 12.1147 9.3561 11.7699C9.3561 11.069 9.63198 10.4104 10.1295 9.91347C10.6294 9.41656 11.292 9.14467 11.997 9.14467C12.702 9.14467 13.3646 9.41656 13.8645 9.91347C14.1101 10.157 14.3049 10.4463 14.4376 10.7649C14.5704 11.0835 14.6384 11.425 14.6379 11.7699C14.6379 12.4707 14.362 13.1293 13.8645 13.6262Z" fill="#828282"/>
</svg>