<svg xmlns="http://www.w3.org/2000/svg" width="25" height="25" viewBox="0 0 25 25" fill="none">
  <g clip-path="url(#clip0_502_3529)">
    <path d="M22.9946 21.5C22.9946 21.5 24.4946 21.5 24.4946 20C24.4946 18.5 22.9946 14 16.9946 14C10.9946 14 9.49463 18.5 9.49463 20C9.49463 21.5 10.9946 21.5 10.9946 21.5H22.9946ZM11.0276 20C11.0165 19.9985 11.0055 19.9965 10.9946 19.994C10.9961 19.598 11.2451 18.449 12.1346 17.414C12.9626 16.4435 14.4176 15.5 16.9946 15.5C19.5701 15.5 21.0251 16.445 21.8546 17.414C22.7441 18.449 22.9916 19.5995 22.9946 19.994L22.9826 19.997C22.9757 19.9982 22.9687 19.9992 22.9616 20H11.0276ZM16.9946 11C17.7903 11 18.5533 10.6839 19.1159 10.1213C19.6786 9.55871 19.9946 8.79565 19.9946 8C19.9946 7.20435 19.6786 6.44129 19.1159 5.87868C18.5533 5.31607 17.7903 5 16.9946 5C16.199 5 15.4359 5.31607 14.8733 5.87868C14.3107 6.44129 13.9946 7.20435 13.9946 8C13.9946 8.79565 14.3107 9.55871 14.8733 10.1213C15.4359 10.6839 16.199 11 16.9946 11ZM21.4946 8C21.4946 8.59095 21.3782 9.17611 21.1521 9.72208C20.9259 10.268 20.5945 10.7641 20.1766 11.182C19.7587 11.5998 19.2627 11.9313 18.7167 12.1575C18.1707 12.3836 17.5856 12.5 16.9946 12.5C16.4037 12.5 15.8185 12.3836 15.2726 12.1575C14.7266 11.9313 14.2305 11.5998 13.8126 11.182C13.3948 10.7641 13.0633 10.268 12.8372 9.72208C12.611 9.17611 12.4946 8.59095 12.4946 8C12.4946 6.80653 12.9687 5.66193 13.8126 4.81802C14.6566 3.97411 15.8012 3.5 16.9946 3.5C18.1881 3.5 19.3327 3.97411 20.1766 4.81802C21.0205 5.66193 21.4946 6.80653 21.4946 8ZM10.8986 14.42C10.2986 14.2311 9.68008 14.1069 9.05363 14.0495C8.70163 14.016 8.34822 13.9995 7.99463 14C1.99463 14 0.494629 18.5 0.494629 20C0.494629 21.0005 0.994129 21.5 1.99463 21.5H8.31863C8.09626 21.0317 7.98536 20.5183 7.99463 20C7.99463 18.485 8.56013 16.937 9.62963 15.644C9.99413 15.203 10.4186 14.7905 10.8986 14.42ZM7.87463 15.5C6.98686 16.8339 6.50729 18.3977 6.49463 20H1.99463C1.99463 19.61 2.24063 18.455 3.13463 17.414C3.95213 16.46 5.37263 15.53 7.87463 15.5015V15.5ZM2.74463 8.75C2.74463 7.55653 3.21873 6.41193 4.06265 5.56802C4.90656 4.72411 6.05115 4.25 7.24463 4.25C8.4381 4.25 9.5827 4.72411 10.4266 5.56802C11.2705 6.41193 11.7446 7.55653 11.7446 8.75C11.7446 9.94347 11.2705 11.0881 10.4266 11.932C9.5827 12.7759 8.4381 13.25 7.24463 13.25C6.05115 13.25 4.90656 12.7759 4.06265 11.932C3.21873 11.0881 2.74463 9.94347 2.74463 8.75ZM7.24463 5.75C6.44898 5.75 5.68592 6.06607 5.12331 6.62868C4.5607 7.19129 4.24463 7.95435 4.24463 8.75C4.24463 9.54565 4.5607 10.3087 5.12331 10.8713C5.68592 11.4339 6.44898 11.75 7.24463 11.75C8.04028 11.75 8.80334 11.4339 9.36595 10.8713C9.92856 10.3087 10.2446 9.54565 10.2446 8.75C10.2446 7.95435 9.92856 7.19129 9.36595 6.62868C8.80334 6.06607 8.04028 5.75 7.24463 5.75Z" fill="#7F00AC"/>
  </g>
  <defs>
    <clipPath id="clip0_502_3529">
      <rect width="24" height="24" fill="white" transform="translate(0.494629 0.5)"/>
    </clipPath>
  </defs>
</svg>