<svg xmlns="http://www.w3.org/2000/svg" width="25" height="25" viewBox="0 0 25 25" fill="none">
  <path d="M2.99463 22.5H22.9946" stroke="#828282" stroke-width="1.5" stroke-miterlimit="10" stroke-linecap="round" stroke-linejoin="round"/>
  <path d="M16.0046 22.4898L4.00464 22.5099L3.99463 7.56986C3.99463 6.89986 4.33464 6.27983 4.88464 5.90983L8.88464 3.23984C9.55464 2.78984 10.4346 2.78984 11.1046 3.23984L15.1046 5.90983C15.6646 6.27983 15.9946 6.89986 15.9946 7.56986L16.0046 22.4898Z" stroke="#828282" stroke-width="1.5" stroke-miterlimit="10" stroke-linecap="round" stroke-linejoin="round"/>
  <path d="M20.9746 22.51V18.5" stroke="#828282" stroke-width="1.5" stroke-miterlimit="10" stroke-linecap="round" stroke-linejoin="round"/>
  <path d="M20.9946 12.5C19.8946 12.5 18.9946 13.4 18.9946 14.5V16.5C18.9946 17.6 19.8946 18.5 20.9946 18.5C22.0946 18.5 22.9946 17.6 22.9946 16.5V14.5C22.9946 13.4 22.0946 12.5 20.9946 12.5Z" stroke="#828282" stroke-width="1.5" stroke-miterlimit="10" stroke-linecap="round" stroke-linejoin="round"/>
  <path d="M3.99463 14.5H15.9946" stroke="#828282" stroke-width="1.5" stroke-miterlimit="10" stroke-linecap="round" stroke-linejoin="round"/>
  <path d="M9.99463 22.5V18.75" stroke="#828282" stroke-width="1.5" stroke-miterlimit="10" stroke-linecap="round" stroke-linejoin="round"/>
  <path d="M9.99463 11C10.8231 11 11.4946 10.3284 11.4946 9.5C11.4946 8.67157 10.8231 8 9.99463 8C9.1662 8 8.49463 8.67157 8.49463 9.5C8.49463 10.3284 9.1662 11 9.99463 11Z" stroke="#828282" stroke-width="1.5" stroke-miterlimit="10" stroke-linecap="round" stroke-linejoin="round"/>
</svg>