<svg xmlns="http://www.w3.org/2000/svg" width="24" height="25" viewBox="0 0 24 25" fill="none">
  <path d="M10.5 20.4V4.6C10.5 3.1 9.86 2.5 8.27 2.5H4.23C2.64 2.5 2 3.1 2 4.6V20.4C2 21.9 2.64 22.5 4.23 22.5H8.27C9.86 22.5 10.5 21.9 10.5 20.4Z" stroke="#828282" stroke-width="1.5" stroke-linecap="round" stroke-linejoin="round"/>
  <path d="M22 11.4V4.6C22 3.1 21.36 2.5 19.77 2.5H15.73C14.14 2.5 13.5 3.1 13.5 4.6V11.4C13.5 12.9 14.14 13.5 15.73 13.5H19.77C21.36 13.5 22 12.9 22 11.4Z" stroke="#828282" stroke-width="1.5" stroke-linecap="round" stroke-linejoin="round"/>
  <path d="M22 20.4V18.6C22 17.1 21.36 16.5 19.77 16.5H15.73C14.14 16.5 13.5 17.1 13.5 18.6V20.4C13.5 21.9 14.14 22.5 15.73 22.5H19.77C21.36 22.5 22 21.9 22 20.4Z" stroke="#828282" stroke-width="1.5" stroke-linecap="round" stroke-linejoin="round"/>
</svg>