<svg xmlns="http://www.w3.org/2000/svg" width="25" height="25" viewBox="0 0 25 25" fill="none">
  <g clip-path="url(#clip0_502_3579)">
    <path d="M11.9946 24.5V20.8347C6.98463 20.5699 2.99463 16.3344 2.99463 11.1724C2.99463 5.83732 7.25463 1.5 12.4946 1.5C17.7346 1.5 21.9946 5.83732 21.9946 11.1724C21.9946 16.2123 18.5546 21.2826 13.4246 23.7975L11.9946 24.5ZM12.4946 3.5363C8.35463 3.5363 4.99463 6.95728 4.99463 11.1724C4.99463 15.3876 8.35463 18.8085 12.4946 18.8085H13.9946V21.1503C17.6346 18.8085 19.9946 14.9599 19.9946 11.1724C19.9946 6.95728 16.6346 3.5363 12.4946 3.5363ZM11.4946 15.245H13.4946V17.2813H11.4946V15.245ZM13.4946 13.7178H11.4946C11.4946 10.4088 14.4946 10.6633 14.4946 8.62705C14.4946 7.50708 13.5946 6.59075 12.4946 6.59075C11.3946 6.59075 10.4946 7.50708 10.4946 8.62705H8.49463C8.49463 6.37694 10.2846 4.55445 12.4946 4.55445C14.7046 4.55445 16.4946 6.37694 16.4946 8.62705C16.4946 11.1724 13.4946 11.427 13.4946 13.7178Z" fill="#828282"/>
  </g>
  <defs>
    <clipPath id="clip0_502_3579">
      <rect width="24" height="24" fill="white" transform="translate(0.994629 0.5)"/>
    </clipPath>
  </defs>
</svg>