<svg width="37" height="38" viewBox="0 0 37 38" fill="none" xmlns="http://www.w3.org/2000/svg">
<path d="M10.0941 22.2239C11.4911 22.2239 12.6235 21.0914 12.6235 19.6945C12.6235 18.2975 11.4911 17.165 10.0941 17.165C8.69715 17.165 7.5647 18.2975 7.5647 19.6945C7.5647 21.0914 8.69715 22.2239 10.0941 22.2239Z" fill="#828282"/>
<path d="M19.2001 22.2239C20.597 22.2239 21.7295 21.0914 21.7295 19.6945C21.7295 18.2975 20.597 17.165 19.2001 17.165C17.8031 17.165 16.6707 18.2975 16.6707 19.6945C16.6707 21.0914 17.8031 22.2239 19.2001 22.2239Z" fill="#828282"/>
<path d="M28.306 22.2239C29.703 22.2239 30.8354 21.0914 30.8354 19.6945C30.8354 18.2975 29.703 17.165 28.306 17.165C26.9091 17.165 25.7766 18.2975 25.7766 19.6945C25.7766 21.0914 26.9091 22.2239 28.306 22.2239Z" fill="#828282"/>
</svg>
