<svg width="19" height="19" viewBox="0 0 19 19" fill="none" xmlns="http://www.w3.org/2000/svg">
<path d="M6.40686 3.27453H6.26449C6.34279 3.27453 6.40686 3.21046 6.40686 3.13216V3.27453H11.8171V3.13216C11.8171 3.21046 11.8811 3.27453 11.9594 3.27453H11.8171V4.5559H13.0984V3.13216C13.0984 2.50393 12.5877 1.99316 11.9594 1.99316H6.26449C5.63626 1.99316 5.1255 2.50393 5.1255 3.13216V4.5559H6.40686V3.27453ZM15.3764 4.5559H2.84751C2.53251 4.5559 2.27802 4.81039 2.27802 5.12539V5.69489C2.27802 5.77319 2.34208 5.83726 2.42039 5.83726H3.49531L3.93489 15.145C3.96337 15.7518 4.46524 16.2306 5.07211 16.2306H13.1518C13.7605 16.2306 14.2606 15.7536 14.289 15.145L14.7286 5.83726H15.8035C15.8819 5.83726 15.9459 5.77319 15.9459 5.69489V5.12539C15.9459 4.81039 15.6914 4.5559 15.3764 4.5559ZM13.0148 14.9492H5.20914L4.77846 5.83726H13.4455L13.0148 14.9492Z" fill="#DA1212"/>
</svg>
