<svg width="16" height="17" viewBox="0 0 16 17" fill="none" xmlns="http://www.w3.org/2000/svg">
<path d="M10 4.11275L12 6.11275M3.33335 10.7794L2.66669 13.4461L5.33335 12.7794L13.0574 5.05542C13.3073 4.80538 13.4477 4.46631 13.4477 4.11275C13.4477 3.7592 13.3073 3.42012 13.0574 3.17009L12.9427 3.05542C12.6927 2.80546 12.3536 2.66504 12 2.66504C11.6465 2.66504 11.3074 2.80546 11.0574 3.05542L3.33335 10.7794Z" stroke="#008751" stroke-linecap="round" stroke-linejoin="round"/>
<path d="M9.99996 4.11178L12 6.11178M3.33329 10.7784L2.66663 13.4451L5.33329 12.7784L13.0573 5.05444C13.3073 4.80441 13.4477 4.46533 13.4477 4.11178C13.4477 3.75823 13.3073 3.41915 13.0573 3.16911L12.9426 3.05444C12.6926 2.80448 12.3535 2.66406 12 2.66406C11.6464 2.66406 11.3073 2.80448 11.0573 3.05444L3.33329 10.7784Z" stroke="#008751" stroke-linecap="round" stroke-linejoin="round"/>
</svg>
