<svg xmlns="http://www.w3.org/2000/svg" width="30" height="30" viewBox="0 0 30 30" fill="none">
  <path d="M7.46154 3H18.5385C19.1913 3 19.8174 3.26339 20.279 3.73223C20.7407 4.20107 21 4.83696 21 5.5V8H18.5385V5.5H7.46154V25.5H18.5385V23H21V25.5C21 26.163 20.7407 26.7989 20.279 27.2678C19.8174 27.7366 19.1913 28 18.5385 28H7.46154C6.8087 28 6.1826 27.7366 5.72097 27.2678C5.25934 26.7989 5 26.163 5 25.5V5.5C5 4.83696 5.25934 4.20107 5.72097 3.73223C6.1826 3.26339 6.8087 3 7.46154 3Z" fill="#828282"/>
  <path d="M19.9281 20.167L21.7037 22L28 15.5L21.7037 9L19.9281 10.833L23.177 14.2H11V16.8H23.177L19.9281 20.167Z" fill="#828282"/>
</svg>