<svg xmlns="http://www.w3.org/2000/svg" width="30" height="30" viewBox="0 0 30 30" fill="none">
  <path d="M13.131 3.56218C13.322 3.10062 13.6494 2.70534 14.0715 2.42702C14.4936 2.14869 14.991 2 15.5 2C16.009 2 16.5064 2.14869 16.9285 2.42702C17.3506 2.70534 17.678 3.10062 17.869 3.56218C19.7584 4.07048 21.4251 5.17146 22.613 6.69602C23.8008 8.22058 24.4442 10.0844 24.4443 12.0013V17.8719L26.7851 21.3066C26.9135 21.4948 26.9873 21.7136 26.9985 21.9396C27.0097 22.1656 26.958 22.3904 26.8489 22.5899C26.7397 22.7894 26.5773 22.9562 26.3788 23.0725C26.1804 23.1887 25.9534 23.2501 25.7221 23.2501H19.9274C19.7736 24.2914 19.2414 25.2436 18.4282 25.9323C17.6151 26.6209 16.5756 27 15.5 27C14.4244 27 13.3849 26.6209 12.5718 25.9323C11.7586 25.2436 11.2264 24.2914 11.0726 23.2501H5.27795C5.04662 23.2501 4.81962 23.1887 4.62117 23.0725C4.42272 22.9562 4.26026 22.7894 4.15113 22.5899C4.04199 22.3904 3.99028 22.1656 4.00151 21.9396C4.01273 21.7136 4.08647 21.4948 4.21485 21.3066L6.5557 17.8719V12.0013C6.5557 7.97172 9.34121 4.57708 13.131 3.56218ZM13.6933 23.2501C13.8252 23.6159 14.0699 23.9326 14.3936 24.1567C14.7173 24.3807 15.1041 24.501 15.5006 24.501C15.8972 24.501 16.284 24.3807 16.6077 24.1567C16.9314 23.9326 17.1761 23.6159 17.308 23.2501H13.692H13.6933ZM15.5 5.75195C13.8056 5.75195 12.1806 6.41036 10.9824 7.58234C9.78432 8.75432 9.11122 10.3439 9.11122 12.0013V18.2506C9.11127 18.4975 9.03658 18.7389 8.89655 18.9443L7.66607 20.7504H23.3326L22.1022 18.9443C21.9626 18.7388 21.8883 18.4974 21.8888 18.2506V12.0013C21.8888 10.3439 21.2157 8.75432 20.0176 7.58234C18.8194 6.41036 17.1944 5.75195 15.5 5.75195Z" fill="#828282"/>
  <circle cx="21" cy="7" r="5" fill="#EB5757"/>
</svg>