<svg width="685" height="451" viewBox="0 0 685 451" fill="none" xmlns="http://www.w3.org/2000/svg">
<rect width="685" height="451" rx="15.5991" fill="white"/>
<path d="M25.8356 35.9254C27.0697 35.9254 28.1374 36.1611 29.0386 36.6326C29.9399 37.0901 30.7025 37.7696 31.3265 38.6708L29.829 40.106C29.3021 39.3017 28.7059 38.7263 28.0403 38.3797C27.3886 38.0191 26.6121 37.8389 25.7108 37.8389C25.0453 37.8389 24.4976 37.929 24.0677 38.1093C23.6379 38.2895 23.319 38.5322 23.111 38.8372C22.9169 39.1284 22.8198 39.4612 22.8198 39.8356C22.8198 40.2654 22.9654 40.6398 23.2566 40.9587C23.5616 41.2776 24.1232 41.5272 24.9413 41.7075L27.7283 42.3314C29.0594 42.6226 30.0023 43.0663 30.557 43.6626C31.1116 44.2588 31.3889 45.0145 31.3889 45.9296C31.3889 46.7754 31.1601 47.5103 30.7025 48.1343C30.245 48.7583 29.6071 49.2366 28.7891 49.5694C27.9848 49.9022 27.035 50.0686 25.9396 50.0686C24.969 50.0686 24.0955 49.9438 23.319 49.6942C22.5425 49.4446 21.8631 49.1049 21.2807 48.6751C20.6983 48.2452 20.22 47.753 19.8456 47.1984L21.3847 45.6592C21.6759 46.1445 22.0433 46.5813 22.487 46.9696C22.9307 47.3439 23.4438 47.6351 24.0261 47.8431C24.6224 48.0511 25.281 48.1551 26.002 48.1551C26.6398 48.1551 27.1875 48.0788 27.6451 47.9263C28.1166 47.7738 28.4701 47.5519 28.7059 47.2607C28.9554 46.9557 29.0802 46.5952 29.0802 46.1792C29.0802 45.7771 28.9416 45.4235 28.6643 45.1185C28.4008 44.8134 27.9016 44.5777 27.1667 44.4113L24.1509 43.725C23.319 43.5447 22.6326 43.2882 22.0918 42.9554C21.5511 42.6226 21.149 42.2205 20.8855 41.7491C20.6221 41.2638 20.4903 40.723 20.4903 40.1268C20.4903 39.3503 20.6983 38.65 21.1143 38.0261C21.5441 37.3883 22.1612 36.8821 22.9654 36.5078C23.7696 36.1195 24.7264 35.9254 25.8356 35.9254ZM37.2251 36.4038V46.7408C37.2251 47.2538 37.3568 47.6282 37.6203 47.8639C37.8976 48.0996 38.265 48.2175 38.7226 48.2175C39.097 48.2175 39.4228 48.162 39.7001 48.0511C39.9774 47.9263 40.234 47.7599 40.4697 47.5519L40.9689 49.1742C40.6499 49.4516 40.2548 49.6734 39.7833 49.8398C39.3258 49.9923 38.8127 50.0686 38.2442 50.0686C37.648 50.0686 37.1003 49.9715 36.6011 49.7774C36.1019 49.5833 35.7137 49.2713 35.4364 48.8415C35.1591 48.3977 35.0135 47.8223 34.9996 47.1152V37.0277L37.2251 36.4038ZM40.8025 39.4612V41.2083H33.0029V39.4612H40.8025ZM46.7058 50.0686C46.0263 50.0686 45.3954 49.9438 44.8131 49.6942C44.2446 49.4446 43.787 49.0425 43.4403 48.4879C43.0937 47.9332 42.9204 47.2122 42.9204 46.3248V39.4612H45.1458V45.7632C45.1458 46.7061 45.3469 47.3578 45.749 47.7183C46.1511 48.065 46.7127 48.2383 47.4337 48.2383C47.7804 48.2383 48.1131 48.1828 48.4321 48.0719C48.7648 47.9471 49.0629 47.7599 49.3264 47.5103C49.5898 47.2469 49.7909 46.9141 49.9296 46.512C50.0821 46.1099 50.1584 45.6384 50.1584 45.0977V39.4612H52.3838V49.8606H50.4287L50.3247 48.1759C49.9642 48.8276 49.4789 49.306 48.8688 49.611C48.2587 49.9161 47.5377 50.0686 46.7058 50.0686ZM59.854 50.0686C58.9943 50.0686 58.2109 49.8537 57.5037 49.4238C56.8104 48.994 56.2627 48.3769 55.8606 47.5727C55.4585 46.7685 55.2575 45.8048 55.2575 44.6817C55.2575 43.517 55.4724 42.5325 55.9022 41.7283C56.3321 40.924 56.9075 40.3139 57.6285 39.898C58.3496 39.4681 59.1399 39.2532 59.9996 39.2532C60.887 39.2532 61.6358 39.4959 62.2459 39.9812C62.856 40.4665 63.265 41.0974 63.473 41.8739L63.2234 42.1026V34.7815H65.4489V49.8606H63.473L63.3066 47.032L63.5978 47.0528C63.5007 47.6767 63.2719 48.2175 62.9114 48.6751C62.5509 49.1188 62.1003 49.4654 61.5595 49.715C61.0326 49.9507 60.4641 50.0686 59.854 50.0686ZM60.3324 48.2799C60.9286 48.2799 61.4416 48.1274 61.8715 47.8223C62.3013 47.5173 62.6341 47.0874 62.8698 46.5328C63.1055 45.9782 63.2234 45.3126 63.2234 44.5361C63.2234 43.8151 63.1055 43.198 62.8698 42.685C62.6341 42.1581 62.3013 41.756 61.8715 41.4787C61.4555 41.2014 60.9702 41.0627 60.4156 41.0627C59.4866 41.0627 58.7655 41.3816 58.2525 42.0195C57.7395 42.6573 57.4829 43.5378 57.4829 44.6609C57.4829 45.784 57.7325 46.6714 58.2317 47.3231C58.7309 47.961 59.4311 48.2799 60.3324 48.2799ZM73.4762 50.0686C72.4363 50.0686 71.5211 49.8537 70.7308 49.4238C69.9404 48.994 69.3234 48.3769 68.8797 47.5727C68.4499 46.7546 68.2349 45.784 68.2349 44.6609C68.2349 43.5378 68.4499 42.5741 68.8797 41.7699C69.3234 40.9518 69.9335 40.3278 70.71 39.898C71.4865 39.4681 72.367 39.2532 73.3514 39.2532C74.3636 39.2532 75.2233 39.4612 75.9305 39.8772C76.6376 40.2932 77.1784 40.8617 77.5528 41.5827C77.9272 42.3037 78.1144 43.1218 78.1144 44.0369C78.1144 44.2865 78.1074 44.5222 78.0936 44.7441C78.0797 44.9659 78.0589 45.1601 78.0312 45.3265H69.6701V43.621H77.0536L75.9513 43.9537C75.9513 43.0109 75.7156 42.2898 75.2441 41.7907C74.7727 41.2776 74.1279 41.0211 73.3098 41.0211C72.7136 41.0211 72.1936 41.1598 71.7499 41.4371C71.3062 41.7144 70.9665 42.1304 70.7308 42.685C70.4951 43.2258 70.3772 43.8913 70.3772 44.6817C70.3772 45.4582 70.502 46.1168 70.7516 46.6576C71.0012 47.1984 71.3548 47.6074 71.8123 47.8847C72.2699 48.162 72.8107 48.3007 73.4346 48.3007C74.1279 48.3007 74.6895 48.169 75.1193 47.9055C75.5492 47.6421 75.8889 47.2746 76.1385 46.8032L77.9064 47.6351C77.6568 48.1343 77.3171 48.5711 76.8872 48.9454C76.4713 49.306 75.9721 49.5833 75.3897 49.7774C74.8074 49.9715 74.1695 50.0686 73.4762 50.0686ZM80.9248 49.8606V39.4612H82.9007L83.0463 42.165L82.7551 41.8739C82.9492 41.2776 83.2265 40.7854 83.587 40.3971C83.9614 39.995 84.3982 39.7039 84.8974 39.5236C85.4104 39.3433 85.9512 39.2532 86.5197 39.2532C87.2546 39.2532 87.9132 39.3988 88.4956 39.69C89.0918 39.9673 89.5632 40.3902 89.9099 40.9587C90.2565 41.5272 90.4298 42.2482 90.4298 43.1218V49.8606H88.2044V43.8081C88.2044 42.7821 87.9895 42.0749 87.5596 41.6867C87.1436 41.2846 86.6167 41.0835 85.9789 41.0835C85.5213 41.0835 85.0776 41.1944 84.6478 41.4163C84.2179 41.6243 83.8574 41.964 83.5662 42.4354C83.2889 42.9069 83.1503 43.5378 83.1503 44.3281V49.8606H80.9248ZM96.7169 36.4038V46.7408C96.7169 47.2538 96.8487 47.6282 97.1121 47.8639C97.3894 48.0996 97.7569 48.2175 98.2144 48.2175C98.5888 48.2175 98.9147 48.162 99.192 48.0511C99.4693 47.9263 99.7258 47.7599 99.9615 47.5519L100.461 49.1742C100.142 49.4516 99.7466 49.6734 99.2752 49.8398C98.8176 49.9923 98.3046 50.0686 97.7361 50.0686C97.1398 50.0686 96.5921 49.9715 96.093 49.7774C95.5938 49.5833 95.2056 49.2713 94.9282 48.8415C94.6509 48.3977 94.5053 47.8223 94.4915 47.1152V37.0277L96.7169 36.4038ZM100.294 39.4612V41.2083H92.4948V39.4612H100.294ZM106.447 50.0686C105.407 50.0686 104.457 49.8675 103.598 49.4654C102.738 49.0633 102.059 48.4948 101.559 47.7599L103.099 46.4288C103.404 46.9973 103.84 47.4549 104.409 47.8015C104.991 48.1343 105.685 48.3007 106.489 48.3007C107.127 48.3007 107.633 48.1898 108.007 47.9679C108.381 47.7461 108.569 47.4341 108.569 47.032C108.569 46.7685 108.479 46.5397 108.298 46.3456C108.132 46.1376 107.806 45.9782 107.321 45.8672L105.137 45.4097C104.028 45.1878 103.237 44.8342 102.766 44.3489C102.294 43.8497 102.059 43.2188 102.059 42.4562C102.059 41.8877 102.225 41.3608 102.558 40.8755C102.891 40.3902 103.376 40.002 104.014 39.7108C104.665 39.4057 105.442 39.2532 106.343 39.2532C107.383 39.2532 108.271 39.4404 109.005 39.8148C109.74 40.1753 110.302 40.6953 110.69 41.3747L109.151 42.6642C108.888 42.1096 108.499 41.7005 107.986 41.4371C107.473 41.1598 106.939 41.0211 106.385 41.0211C105.941 41.0211 105.56 41.0766 105.241 41.1875C104.922 41.2984 104.679 41.451 104.513 41.6451C104.347 41.8392 104.263 42.068 104.263 42.3314C104.263 42.6088 104.367 42.8514 104.575 43.0594C104.783 43.2674 105.158 43.4268 105.698 43.5378L108.069 44.0369C109.068 44.2311 109.768 44.5638 110.17 45.0353C110.586 45.4928 110.794 46.0544 110.794 46.72C110.794 47.3855 110.621 47.9748 110.274 48.4879C109.928 48.987 109.428 49.3753 108.777 49.6526C108.125 49.9299 107.348 50.0686 106.447 50.0686Z" fill="#9747FF"/>
<path d="M179.61 38.8958L171.134 47.3713C170.133 48.3722 168.495 48.3722 167.494 47.3713L159.019 38.8958" stroke="#9747FF" stroke-width="3.89977" stroke-miterlimit="10" stroke-linecap="round" stroke-linejoin="round"/>
<g filter="url(#filter0_d_368_8583)">
<rect x="461.092" y="25.6609" width="98.1967" height="34.3994" rx="5.1997" fill="white"/>
<path d="M472.912 48.2773C473.761 47.6585 474.617 46.9245 475.478 46.0752C476.34 45.2259 477.068 44.316 477.662 43.3454C478.269 42.3748 478.572 41.4527 478.572 40.5791C478.572 39.9604 478.396 39.469 478.044 39.105C477.692 38.741 477.207 38.5591 476.588 38.5591C476.006 38.5591 475.448 38.7046 474.914 38.9958C474.38 39.287 473.956 39.6753 473.64 40.1606L472.585 39.014C472.985 38.371 473.537 37.8675 474.241 37.5035C474.957 37.1274 475.745 36.9393 476.607 36.9393C477.844 36.9393 478.815 37.2609 479.518 37.9039C480.234 38.5348 480.592 39.4083 480.592 40.5245C480.592 41.7378 480.113 43.0178 479.154 44.3645C478.208 45.6991 477.007 47.0216 475.551 48.3319H481.12V49.8606H472.912V48.2773ZM486.956 50.0426C485.524 50.0426 484.426 49.4906 483.662 48.3865C482.898 47.2703 482.516 45.6384 482.516 43.491C482.516 41.3435 482.898 39.7177 483.662 38.6136C484.426 37.4974 485.524 36.9393 486.956 36.9393C488.388 36.9393 489.48 37.4974 490.232 38.6136C490.996 39.7177 491.378 41.3435 491.378 43.491C491.378 45.6384 490.996 47.2703 490.232 48.3865C489.48 49.4906 488.388 50.0426 486.956 50.0426ZM486.956 48.5685C487.757 48.5685 488.363 48.1438 488.776 47.2945C489.188 46.4453 489.395 45.1774 489.395 43.491C489.395 41.7924 489.188 40.5245 488.776 39.6874C488.363 38.8381 487.757 38.4135 486.956 38.4135C485.318 38.4135 484.499 40.106 484.499 43.491C484.499 45.1774 484.705 46.4453 485.118 47.2945C485.543 48.1438 486.155 48.5685 486.956 48.5685ZM493.102 48.2773C493.951 47.6585 494.806 46.9245 495.668 46.0752C496.529 45.2259 497.257 44.316 497.852 43.3454C498.458 42.3748 498.762 41.4527 498.762 40.5791C498.762 39.9604 498.586 39.469 498.234 39.105C497.882 38.741 497.397 38.5591 496.778 38.5591C496.195 38.5591 495.637 38.7046 495.104 38.9958C494.57 39.287 494.145 39.6753 493.83 40.1606L492.774 39.014C493.174 38.371 493.726 37.8675 494.43 37.5035C495.146 37.1274 495.935 36.9393 496.796 36.9393C498.034 36.9393 499.004 37.2609 499.708 37.9039C500.424 38.5348 500.782 39.4083 500.782 40.5245C500.782 41.7378 500.302 43.0178 499.344 44.3645C498.398 45.6991 497.196 47.0216 495.74 48.3319H501.309V49.8606H493.102V48.2773ZM507.018 50.0426C506.096 50.0426 505.271 49.8727 504.543 49.533C503.827 49.1933 503.293 48.7262 502.942 48.1317L503.924 47.0034C504.252 47.428 504.689 47.7738 505.235 48.0407C505.793 48.2955 506.363 48.4229 506.945 48.4229C507.673 48.4229 508.256 48.2227 508.692 47.8223C509.141 47.4098 509.366 46.876 509.366 46.2208C509.366 45.505 509.093 44.9469 508.547 44.5465C508.001 44.1461 507.249 43.9459 506.29 43.9459H505.489V42.4354H506.272C507.073 42.4354 507.716 42.2352 508.201 41.8349C508.686 41.4224 508.929 40.8885 508.929 40.2334C508.929 39.6995 508.753 39.287 508.401 38.9958C508.049 38.7046 507.558 38.5591 506.927 38.5591C506.333 38.5591 505.775 38.6864 505.253 38.9412C504.743 39.1839 504.319 39.5297 503.979 39.9786L503.033 38.8502C503.433 38.2679 503.997 37.8068 504.725 37.4671C505.465 37.1153 506.266 36.9393 507.127 36.9393C507.88 36.9393 508.541 37.0667 509.111 37.3215C509.681 37.5763 510.124 37.9403 510.44 38.4135C510.755 38.8745 510.913 39.4083 510.913 40.015C510.913 40.7187 510.713 41.3435 510.312 41.8895C509.912 42.4354 509.348 42.8419 508.62 43.1088C509.517 43.3514 510.197 43.7458 510.658 44.2917C511.131 44.8377 511.368 45.5171 511.368 46.33C511.368 47.058 511.186 47.7071 510.822 48.2773C510.47 48.8354 509.96 49.2722 509.293 49.5876C508.638 49.8909 507.88 50.0426 507.018 50.0426Z" fill="black" fill-opacity="0.6"/>
<path d="M545.353 40.2175L539.703 45.8679C539.036 46.5352 537.944 46.5352 537.276 45.8679L531.626 40.2175" stroke="black" stroke-opacity="0.6" stroke-width="1.94989" stroke-miterlimit="10" stroke-linecap="round" stroke-linejoin="round"/>
</g>
<g filter="url(#filter1_d_368_8583)">
<rect x="580.087" y="27.5621" width="32.4981" height="32.4981" rx="5.1997" fill="white" shape-rendering="crispEdges"/>
<path fill-rule="evenodd" clip-rule="evenodd" d="M602.836 48.2308C602.013 48.2308 601.276 48.5558 600.713 49.065L592.989 44.5694C593.043 44.3202 593.087 44.0711 593.087 43.8111C593.087 43.5511 593.043 43.302 592.989 43.0528L600.626 38.6006C601.211 39.1422 601.98 39.478 602.836 39.478C604.634 39.478 606.086 38.0264 606.086 36.2282C606.086 34.43 604.634 32.9784 602.836 32.9784C601.038 32.9784 599.586 34.43 599.586 36.2282C599.586 36.4882 599.63 36.7373 599.684 36.9865L592.047 41.4387C591.462 40.8971 590.693 40.5613 589.837 40.5613C588.039 40.5613 586.587 42.0129 586.587 43.8111C586.587 45.6093 588.039 47.0609 589.837 47.0609C590.693 47.0609 591.462 46.7251 592.047 46.1835L599.76 50.6899C599.705 50.9174 599.673 51.1557 599.673 51.394C599.673 53.1381 601.092 54.5571 602.836 54.5571C604.58 54.5571 605.999 53.1381 605.999 51.394C605.999 49.6499 604.58 48.2308 602.836 48.2308Z" fill="#9747FF"/>
</g>
<g filter="url(#filter2_d_368_8583)">
<rect x="633.384" y="27.5621" width="32.4981" height="32.4981" rx="5.1997" fill="white" shape-rendering="crispEdges"/>
<path fill-rule="evenodd" clip-rule="evenodd" d="M654.605 41.6446H652.883V36.2283C652.883 35.6325 652.396 35.145 651.8 35.145H647.467C646.871 35.145 646.383 35.6325 646.383 36.2283V41.6446H644.661C643.697 41.6446 643.209 42.8146 643.892 43.497L648.864 48.4692C649.287 48.8917 649.969 48.8917 650.392 48.4692L655.364 43.497C656.046 42.8146 655.57 41.6446 654.605 41.6446ZM642.05 52.4774C642.05 53.0732 642.538 53.5607 643.134 53.5607H656.133C656.729 53.5607 657.216 53.0732 657.216 52.4774C657.216 51.8816 656.729 51.3941 656.133 51.3941H643.134C642.538 51.3941 642.05 51.8816 642.05 52.4774Z" fill="#9747FF"/>
</g>
<rect x="7.51425" y="60.0603" width="655.075" height="350.806" rx="15.5991" fill="white"/>
<path d="M27.878 129.614C27.1708 129.614 26.4949 129.5 25.8501 129.271C25.2053 129.042 24.6594 128.72 24.2122 128.304L24.6958 127.29C25.6629 128.08 26.7184 128.475 27.8624 128.475C28.6215 128.475 29.2195 128.262 29.6563 127.836C30.093 127.409 30.3114 126.848 30.3114 126.151C30.3114 125.433 30.1034 124.846 29.6875 124.388C29.2715 123.931 28.6995 123.702 27.9716 123.702C26.9212 123.702 26.0945 124.139 25.4913 125.012H24.5554V118.476H30.9354V119.568H25.8189V123.499C26.4221 122.896 27.2176 122.594 28.2056 122.594C28.8919 122.594 29.4899 122.74 29.9995 123.031C30.509 123.322 30.899 123.733 31.1694 124.264C31.4502 124.784 31.5906 125.392 31.5906 126.089C31.5906 126.775 31.4398 127.383 31.1382 127.914C30.8366 128.444 30.405 128.86 29.8435 129.162C29.2923 129.463 28.6371 129.614 27.878 129.614ZM36.9974 129.614C35.739 129.614 34.7823 129.13 34.1271 128.163C33.472 127.196 33.1444 125.797 33.1444 123.967C33.1444 122.126 33.472 120.728 34.1271 119.771C34.7823 118.814 35.739 118.336 36.9974 118.336C38.2661 118.336 39.2228 118.814 39.8676 119.771C40.5227 120.717 40.8503 122.111 40.8503 123.952C40.8503 125.792 40.5175 127.196 39.852 128.163C39.1968 129.13 38.2453 129.614 36.9974 129.614ZM36.9974 128.506C37.8709 128.506 38.5157 128.137 38.9316 127.399C39.358 126.661 39.5712 125.511 39.5712 123.952C39.5712 122.392 39.3632 121.253 38.9472 120.535C38.5313 119.807 37.8813 119.443 36.9974 119.443C36.1238 119.443 35.4738 119.807 35.0475 120.535C34.6315 121.263 34.4235 122.402 34.4235 123.952C34.4235 125.511 34.6315 126.661 35.0475 127.399C35.4738 128.137 36.1238 128.506 36.9974 128.506ZM46.3507 129.614C45.0924 129.614 44.1356 129.13 43.4805 128.163C42.8253 127.196 42.4977 125.797 42.4977 123.967C42.4977 122.126 42.8253 120.728 43.4805 119.771C44.1356 118.814 45.0924 118.336 46.3507 118.336C47.6194 118.336 48.5762 118.814 49.2209 119.771C49.8761 120.717 50.2037 122.111 50.2037 123.952C50.2037 125.792 49.8709 127.196 49.2053 128.163C48.5502 129.13 47.5986 129.614 46.3507 129.614ZM46.3507 128.506C47.2243 128.506 47.869 128.137 48.285 127.399C48.7114 126.661 48.9246 125.511 48.9246 123.952C48.9246 122.392 48.7166 121.253 48.3006 120.535C47.8846 119.807 47.2347 119.443 46.3507 119.443C45.4772 119.443 44.8272 119.807 44.4008 120.535C43.9849 121.263 43.7769 122.402 43.7769 123.952C43.7769 125.511 43.9849 126.661 44.4008 127.399C44.8272 128.137 45.4772 128.506 46.3507 128.506Z" fill="#7C828A"/>
<path d="M28.8452 170.088V167.732H23.7755V166.765L29.0636 159.09H30.1399V166.64H31.7778V167.732H30.1399V170.088H28.8452ZM28.8452 166.64V161.196L25.1014 166.64H28.8452ZM36.9974 170.228C35.7391 170.228 34.7823 169.744 34.1272 168.777C33.472 167.81 33.1444 166.411 33.1444 164.581C33.1444 162.74 33.472 161.342 34.1272 160.385C34.7823 159.428 35.7391 158.95 36.9974 158.95C38.2661 158.95 39.2229 159.428 39.8676 160.385C40.5228 161.331 40.8504 162.725 40.8504 164.566C40.8504 166.406 40.5176 167.81 39.852 168.777C39.1969 169.744 38.2453 170.228 36.9974 170.228ZM36.9974 169.121C37.871 169.121 38.5157 168.751 38.9317 168.013C39.3581 167.275 39.5713 166.125 39.5713 164.566C39.5713 163.006 39.3633 161.867 38.9473 161.149C38.5313 160.421 37.8814 160.057 36.9974 160.057C36.1239 160.057 35.4739 160.421 35.0475 161.149C34.6315 161.877 34.4236 163.016 34.4236 164.566C34.4236 166.125 34.6315 167.275 35.0475 168.013C35.4739 168.751 36.1239 169.121 36.9974 169.121ZM46.3508 170.228C45.0924 170.228 44.1357 169.744 43.4805 168.777C42.8254 167.81 42.4978 166.411 42.4978 164.581C42.4978 162.74 42.8254 161.342 43.4805 160.385C44.1357 159.428 45.0924 158.95 46.3508 158.95C47.6195 158.95 48.5762 159.428 49.221 160.385C49.8762 161.331 50.2038 162.725 50.2038 164.566C50.2038 166.406 49.871 167.81 49.2054 168.777C48.5502 169.744 47.5987 170.228 46.3508 170.228ZM46.3508 169.121C47.2243 169.121 47.8691 168.751 48.2851 168.013C48.7114 167.275 48.9246 166.125 48.9246 164.566C48.9246 163.006 48.7166 161.867 48.3007 161.149C47.8847 160.421 47.2347 160.057 46.3508 160.057C45.4772 160.057 44.8273 160.421 44.4009 161.149C43.9849 161.877 43.7769 163.016 43.7769 164.566C43.7769 166.125 43.9849 167.275 44.4009 168.013C44.8273 168.751 45.4772 169.121 46.3508 169.121Z" fill="#7C828A"/>
<path d="M27.5193 210.842C26.7913 210.842 26.0997 210.733 25.4446 210.514C24.7894 210.286 24.2382 209.958 23.7911 209.532L24.259 208.518C24.7686 208.934 25.2834 209.235 25.8034 209.423C26.3233 209.61 26.8849 209.703 27.4881 209.703C28.2784 209.703 28.8816 209.532 29.2976 209.189C29.7239 208.835 29.9371 208.32 29.9371 207.644C29.9371 206.999 29.7239 206.511 29.2976 206.178C28.8712 205.845 28.2524 205.679 27.4413 205.679H25.819V204.571H27.3321C28.0392 204.571 28.5956 204.389 29.0012 204.025C29.4171 203.651 29.6251 203.141 29.6251 202.497C29.6251 201.925 29.4327 201.483 29.048 201.171C28.6736 200.859 28.138 200.703 27.4413 200.703C26.2973 200.703 25.299 201.119 24.4462 201.951L23.9783 200.952C24.3838 200.515 24.8986 200.177 25.5226 199.938C26.1569 199.689 26.8225 199.564 27.5193 199.564C28.58 199.564 29.4067 199.813 29.9995 200.313C30.6027 200.812 30.9043 201.503 30.9043 202.387C30.9043 203.001 30.7483 203.542 30.4363 204.01C30.1243 204.467 29.6927 204.8 29.1416 205.008C29.7967 205.185 30.3063 205.512 30.6703 205.991C31.0343 206.459 31.2162 207.041 31.2162 207.738C31.2162 208.684 30.8835 209.438 30.2179 210C29.5627 210.561 28.6632 210.842 27.5193 210.842ZM36.9974 210.842C35.7391 210.842 34.7823 210.358 34.1272 209.391C33.472 208.424 33.1444 207.025 33.1444 205.195C33.1444 203.354 33.472 201.956 34.1272 200.999C34.7823 200.042 35.7391 199.564 36.9974 199.564C38.2661 199.564 39.2229 200.042 39.8676 200.999C40.5228 201.945 40.8504 203.339 40.8504 205.18C40.8504 207.02 40.5176 208.424 39.852 209.391C39.1969 210.358 38.2453 210.842 36.9974 210.842ZM36.9974 209.735C37.871 209.735 38.5157 209.365 38.9317 208.627C39.3581 207.889 39.5713 206.739 39.5713 205.18C39.5713 203.62 39.3633 202.481 38.9473 201.763C38.5313 201.035 37.8814 200.671 36.9974 200.671C36.1239 200.671 35.4739 201.035 35.0475 201.763C34.6315 202.491 34.4236 203.63 34.4236 205.18C34.4236 206.739 34.6315 207.889 35.0475 208.627C35.4739 209.365 36.1239 209.735 36.9974 209.735ZM46.3508 210.842C45.0924 210.842 44.1357 210.358 43.4805 209.391C42.8254 208.424 42.4978 207.025 42.4978 205.195C42.4978 203.354 42.8254 201.956 43.4805 200.999C44.1357 200.042 45.0924 199.564 46.3508 199.564C47.6195 199.564 48.5762 200.042 49.221 200.999C49.8762 201.945 50.2038 203.339 50.2038 205.18C50.2038 207.02 49.871 208.424 49.2054 209.391C48.5502 210.358 47.5987 210.842 46.3508 210.842ZM46.3508 209.735C47.2243 209.735 47.8691 209.365 48.2851 208.627C48.7114 207.889 48.9246 206.739 48.9246 205.18C48.9246 203.62 48.7166 202.481 48.3007 201.763C47.8847 201.035 47.2347 200.671 46.3508 200.671C45.4772 200.671 44.8273 201.035 44.4009 201.763C43.9849 202.491 43.7769 203.63 43.7769 205.18C43.7769 206.739 43.9849 207.889 44.4009 208.627C44.8273 209.365 45.4772 209.735 46.3508 209.735Z" fill="#7C828A"/>
<path d="M24.3682 251.316V250.349L28.1276 246.293C28.658 245.71 29.0376 245.18 29.2664 244.702C29.5055 244.223 29.6251 243.735 29.6251 243.235C29.6251 241.956 28.8816 241.317 27.3945 241.317C26.2817 241.317 25.299 241.733 24.4462 242.565L23.9627 241.566C24.3682 241.15 24.883 240.817 25.507 240.568C26.1413 240.308 26.8069 240.178 27.5037 240.178C28.606 240.178 29.4483 240.438 30.0307 240.958C30.6235 241.467 30.9199 242.195 30.9199 243.142C30.9199 243.797 30.7587 244.442 30.4363 245.076C30.1139 245.7 29.6199 246.366 28.9544 247.073L26.0061 250.224H31.3722V251.316H24.3682ZM36.9974 251.456C35.7391 251.456 34.7823 250.972 34.1272 250.005C33.472 249.038 33.1444 247.639 33.1444 245.809C33.1444 243.968 33.472 242.57 34.1272 241.613C34.7823 240.656 35.7391 240.178 36.9974 240.178C38.2661 240.178 39.2229 240.656 39.8676 241.613C40.5228 242.559 40.8504 243.953 40.8504 245.794C40.8504 247.634 40.5176 249.038 39.852 250.005C39.1969 250.972 38.2453 251.456 36.9974 251.456ZM36.9974 250.349C37.871 250.349 38.5157 249.979 38.9317 249.241C39.3581 248.503 39.5713 247.354 39.5713 245.794C39.5713 244.234 39.3633 243.095 38.9473 242.377C38.5313 241.649 37.8814 241.285 36.9974 241.285C36.1239 241.285 35.4739 241.649 35.0475 242.377C34.6315 243.105 34.4236 244.244 34.4236 245.794C34.4236 247.354 34.6315 248.503 35.0475 249.241C35.4739 249.979 36.1239 250.349 36.9974 250.349ZM46.3508 251.456C45.0924 251.456 44.1357 250.972 43.4805 250.005C42.8254 249.038 42.4978 247.639 42.4978 245.809C42.4978 243.968 42.8254 242.57 43.4805 241.613C44.1357 240.656 45.0924 240.178 46.3508 240.178C47.6195 240.178 48.5762 240.656 49.221 241.613C49.8762 242.559 50.2038 243.953 50.2038 245.794C50.2038 247.634 49.871 249.038 49.2054 250.005C48.5502 250.972 47.5987 251.456 46.3508 251.456ZM46.3508 250.349C47.2243 250.349 47.8691 249.979 48.2851 249.241C48.7114 248.503 48.9246 247.354 48.9246 245.794C48.9246 244.234 48.7166 243.095 48.3007 242.377C47.8847 241.649 47.2347 241.285 46.3508 241.285C45.4772 241.285 44.8273 241.649 44.4009 242.377C43.9849 243.105 43.7769 244.244 43.7769 245.794C43.7769 247.354 43.9849 248.503 44.4009 249.241C44.8273 249.979 45.4772 250.349 46.3508 250.349Z" fill="#7C828A"/>
<path d="M24.8985 291.93V290.838H27.41V282.477L25.4289 283.725L24.8829 282.773L27.7688 280.932H28.6891V290.838H31.0446V291.93H24.8985ZM36.9974 292.07C35.739 292.07 34.7823 291.587 34.1271 290.619C33.472 289.652 33.1444 288.254 33.1444 286.423C33.1444 284.583 33.472 283.184 34.1271 282.227C34.7823 281.27 35.739 280.792 36.9974 280.792C38.2661 280.792 39.2228 281.27 39.8676 282.227C40.5227 283.173 40.8503 284.567 40.8503 286.408C40.8503 288.248 40.5175 289.652 39.852 290.619C39.1968 291.587 38.2453 292.07 36.9974 292.07ZM36.9974 290.963C37.8709 290.963 38.5157 290.593 38.9316 289.855C39.358 289.117 39.5712 287.968 39.5712 286.408C39.5712 284.848 39.3632 283.709 38.9472 282.991C38.5313 282.263 37.8813 281.899 36.9974 281.899C36.1238 281.899 35.4738 282.263 35.0475 282.991C34.6315 283.719 34.4235 284.858 34.4235 286.408C34.4235 287.968 34.6315 289.117 35.0475 289.855C35.4738 290.593 36.1238 290.963 36.9974 290.963ZM46.3507 292.07C45.0924 292.07 44.1356 291.587 43.4805 290.619C42.8253 289.652 42.4977 288.254 42.4977 286.423C42.4977 284.583 42.8253 283.184 43.4805 282.227C44.1356 281.27 45.0924 280.792 46.3507 280.792C47.6194 280.792 48.5762 281.27 49.2209 282.227C49.8761 283.173 50.2037 284.567 50.2037 286.408C50.2037 288.248 49.8709 289.652 49.2053 290.619C48.5502 291.587 47.5986 292.07 46.3507 292.07ZM46.3507 290.963C47.2243 290.963 47.869 290.593 48.285 289.855C48.7114 289.117 48.9246 287.968 48.9246 286.408C48.9246 284.848 48.7166 283.709 48.3006 282.991C47.8846 282.263 47.2347 281.899 46.3507 281.899C45.4772 281.899 44.8272 282.263 44.4008 282.991C43.9849 283.719 43.7769 284.858 43.7769 286.408C43.7769 287.968 43.9849 289.117 44.4008 289.855C44.8272 290.593 45.4772 290.963 46.3507 290.963Z" fill="#7C828A"/>
<path d="M46.3508 332.684C45.0924 332.684 44.1357 332.2 43.4805 331.233C42.8254 330.266 42.4978 328.867 42.4978 327.037C42.4978 325.196 42.8254 323.798 43.4805 322.841C44.1357 321.884 45.0924 321.406 46.3508 321.406C47.6195 321.406 48.5762 321.884 49.221 322.841C49.8762 323.787 50.2038 325.181 50.2038 327.021C50.2038 328.862 49.871 330.266 49.2054 331.233C48.5502 332.2 47.5987 332.684 46.3508 332.684ZM46.3508 331.576C47.2243 331.576 47.8691 331.207 48.2851 330.469C48.7114 329.731 48.9246 328.581 48.9246 327.021C48.9246 325.462 48.7166 324.323 48.3007 323.605C47.8847 322.877 47.2347 322.513 46.3508 322.513C45.4772 322.513 44.8273 322.877 44.4009 323.605C43.9849 324.333 43.7769 325.472 43.7769 327.021C43.7769 328.581 43.9849 329.731 44.4009 330.469C44.8273 331.207 45.4772 331.576 46.3508 331.576Z" fill="#7C828A"/>
<path d="M604.884 340.525H606.258V348.635C606.258 349.359 606.125 349.974 605.859 350.48C605.593 350.986 605.218 351.37 604.735 351.632C604.251 351.894 603.68 352.025 603.023 352.025C602.403 352.025 601.85 351.913 601.367 351.687C600.883 351.458 600.502 351.133 600.226 350.712C599.949 350.291 599.81 349.791 599.81 349.211H601.162C601.162 349.532 601.241 349.813 601.4 350.053C601.562 350.29 601.784 350.474 602.065 350.607C602.345 350.74 602.665 350.807 603.023 350.807C603.418 350.807 603.754 350.723 604.031 350.557C604.308 350.391 604.519 350.147 604.663 349.826C604.81 349.501 604.884 349.104 604.884 348.635V340.525ZM614.196 348.391V343.362H615.503V351.87H614.196V350.43H614.107C613.908 350.862 613.598 351.229 613.177 351.532C612.756 351.831 612.224 351.981 611.581 351.981C611.05 351.981 610.577 351.865 610.163 351.632C609.75 351.396 609.425 351.041 609.188 350.568C608.952 350.092 608.834 349.492 608.834 348.768V343.362H610.141V348.679C610.141 349.3 610.315 349.795 610.662 350.164C611.013 350.533 611.46 350.718 612.002 350.718C612.327 350.718 612.658 350.635 612.994 350.469C613.334 350.302 613.618 350.048 613.847 349.704C614.08 349.361 614.196 348.923 614.196 348.391ZM619.205 340.525V351.87H617.898V340.525H619.205Z" fill="#7C828A"/>
<path d="M515.356 340.525H516.73V348.635C516.73 349.359 516.597 349.974 516.331 350.48C516.065 350.986 515.69 351.37 515.207 351.632C514.723 351.894 514.152 352.025 513.495 352.025C512.874 352.025 512.322 351.913 511.839 351.687C511.355 351.458 510.974 351.133 510.697 350.712C510.421 350.291 510.282 349.791 510.282 349.211H511.634C511.634 349.532 511.713 349.813 511.872 350.053C512.034 350.29 512.256 350.474 512.537 350.607C512.817 350.74 513.137 350.807 513.495 350.807C513.89 350.807 514.226 350.723 514.503 350.557C514.78 350.391 514.991 350.147 515.135 349.826C515.282 349.501 515.356 349.104 515.356 348.635V340.525ZM524.668 348.391V343.362H525.975V351.87H524.668V350.43H524.579C524.38 350.862 524.07 351.229 523.649 351.532C523.228 351.831 522.696 351.981 522.053 351.981C521.522 351.981 521.049 351.865 520.635 351.632C520.222 351.396 519.897 351.041 519.66 350.568C519.424 350.092 519.306 349.492 519.306 348.768V343.362H520.613V348.679C520.613 349.3 520.787 349.795 521.134 350.164C521.485 350.533 521.931 350.718 522.474 350.718C522.799 350.718 523.13 350.635 523.466 350.469C523.806 350.302 524.09 350.048 524.319 349.704C524.552 349.361 524.668 348.923 524.668 348.391ZM529.677 346.752V351.87H528.37V343.362H529.633V344.691H529.744C529.943 344.259 530.246 343.912 530.652 343.65C531.058 343.384 531.583 343.251 532.225 343.251C532.801 343.251 533.305 343.369 533.737 343.605C534.17 343.838 534.506 344.192 534.746 344.669C534.986 345.142 535.106 345.74 535.106 346.464V351.87H533.798V346.552C533.798 345.884 533.625 345.363 533.278 344.99C532.931 344.613 532.454 344.425 531.848 344.425C531.431 344.425 531.058 344.516 530.73 344.697C530.405 344.877 530.148 345.142 529.96 345.489C529.771 345.836 529.677 346.257 529.677 346.752Z" fill="#7C828A"/>
<path d="M422.003 340.525H423.642L427.498 349.942H427.631L431.486 340.525H433.126V351.87H431.841V343.251H431.73L428.185 351.87H426.944L423.399 343.251H423.288V351.87H422.003V340.525ZM438.207 352.07C437.668 352.07 437.178 351.968 436.739 351.765C436.299 351.558 435.951 351.261 435.692 350.873C435.433 350.482 435.304 350.009 435.304 349.455C435.304 348.967 435.4 348.572 435.592 348.269C435.784 347.963 436.041 347.723 436.362 347.549C436.684 347.376 437.038 347.247 437.426 347.162C437.817 347.073 438.211 347.003 438.606 346.951C439.123 346.885 439.542 346.835 439.863 346.802C440.188 346.765 440.425 346.704 440.572 346.619C440.724 346.534 440.799 346.386 440.799 346.176V346.131C440.799 345.585 440.65 345.16 440.351 344.857C440.055 344.554 439.607 344.403 439.005 344.403C438.38 344.403 437.891 344.54 437.537 344.813C437.182 345.086 436.933 345.378 436.789 345.688L435.548 345.245C435.77 344.728 436.065 344.325 436.434 344.037C436.807 343.746 437.213 343.542 437.653 343.428C438.096 343.31 438.532 343.251 438.96 343.251C439.234 343.251 439.547 343.284 439.902 343.35C440.26 343.413 440.605 343.544 440.938 343.744C441.274 343.943 441.553 344.244 441.774 344.647C441.996 345.049 442.107 345.588 442.107 346.264V351.87H440.799V350.718H440.733C440.644 350.903 440.497 351.1 440.29 351.311C440.083 351.521 439.808 351.7 439.464 351.848C439.121 351.996 438.702 352.07 438.207 352.07ZM438.406 350.895C438.923 350.895 439.359 350.794 439.714 350.591C440.072 350.387 440.341 350.125 440.522 349.804C440.707 349.483 440.799 349.145 440.799 348.79V347.594C440.744 347.66 440.622 347.721 440.434 347.776C440.249 347.828 440.035 347.874 439.791 347.915C439.551 347.952 439.317 347.985 439.088 348.015C438.862 348.041 438.68 348.063 438.539 348.081C438.2 348.125 437.882 348.197 437.586 348.297C437.295 348.393 437.058 348.539 436.877 348.735C436.7 348.927 436.612 349.189 436.612 349.521C436.612 349.976 436.78 350.319 437.116 350.552C437.455 350.781 437.886 350.895 438.406 350.895ZM445.03 355.061C444.809 355.061 444.611 355.042 444.437 355.005C444.264 354.972 444.144 354.939 444.077 354.906L444.41 353.754C444.727 353.835 445.008 353.864 445.252 353.842C445.495 353.82 445.711 353.711 445.9 353.515C446.092 353.323 446.267 353.011 446.426 352.579L446.67 351.914L443.523 343.362H444.941L447.29 350.142H447.379L449.728 343.362H451.146L447.534 353.111C447.371 353.55 447.17 353.914 446.93 354.202C446.69 354.494 446.411 354.71 446.094 354.85C445.78 354.991 445.425 355.061 445.03 355.061Z" fill="#7C828A"/>
<path d="M338.248 351.87H336.808L340.974 340.525H342.392L346.557 351.87H345.117L341.727 342.32H341.638L338.248 351.87ZM338.78 347.439H344.585V348.657H338.78V347.439ZM348.147 355.061V343.362H349.41V344.713H349.565C349.661 344.565 349.794 344.377 349.964 344.148C350.138 343.915 350.385 343.709 350.706 343.528C351.031 343.343 351.471 343.251 352.025 343.251C352.741 343.251 353.373 343.43 353.919 343.788C354.466 344.146 354.892 344.654 355.199 345.311C355.505 345.969 355.659 346.744 355.659 347.638C355.659 348.539 355.505 349.32 355.199 349.981C354.892 350.639 354.468 351.148 353.925 351.51C353.382 351.868 352.756 352.047 352.047 352.047C351.5 352.047 351.063 351.957 350.734 351.776C350.405 351.591 350.152 351.383 349.975 351.15C349.798 350.914 349.661 350.718 349.565 350.563H349.454V355.061H348.147ZM349.432 347.616C349.432 348.258 349.526 348.825 349.715 349.316C349.903 349.804 350.178 350.186 350.54 350.463C350.902 350.736 351.345 350.873 351.87 350.873C352.416 350.873 352.872 350.729 353.238 350.441C353.607 350.149 353.884 349.758 354.069 349.267C354.257 348.772 354.351 348.221 354.351 347.616C354.351 347.018 354.259 346.478 354.074 345.998C353.893 345.515 353.618 345.132 353.249 344.852C352.883 344.567 352.424 344.425 351.87 344.425C351.338 344.425 350.891 344.56 350.529 344.829C350.167 345.095 349.894 345.468 349.709 345.948C349.525 346.425 349.432 346.981 349.432 347.616ZM357.653 351.87V343.362H358.916V344.647H359.004C359.16 344.226 359.44 343.884 359.846 343.622C360.253 343.36 360.711 343.229 361.22 343.229C361.316 343.229 361.436 343.23 361.58 343.234C361.724 343.238 361.833 343.243 361.907 343.251V344.58C361.863 344.569 361.761 344.553 361.602 344.53C361.447 344.504 361.283 344.492 361.109 344.492C360.696 344.492 360.327 344.578 360.002 344.752C359.68 344.922 359.425 345.158 359.237 345.461C359.052 345.76 358.96 346.102 358.96 346.486V351.87H357.653Z" fill="#7C828A"/>
<path d="M252.995 340.525H254.635L258.49 349.942H258.623L262.479 340.525H264.119V351.87H262.833V343.251H262.723L259.177 351.87H257.937L254.391 343.251H254.28V351.87H252.995V340.525ZM269.2 352.07C268.66 352.07 268.171 351.968 267.732 351.765C267.292 351.558 266.943 351.261 266.685 350.873C266.426 350.482 266.297 350.009 266.297 349.455C266.297 348.967 266.393 348.572 266.585 348.269C266.777 347.963 267.034 347.723 267.355 347.549C267.676 347.376 268.031 347.247 268.419 347.162C268.81 347.073 269.203 347.003 269.598 346.951C270.115 346.885 270.535 346.835 270.856 346.802C271.181 346.765 271.417 346.704 271.565 346.619C271.716 346.534 271.792 346.386 271.792 346.176V346.131C271.792 345.585 271.643 345.16 271.343 344.857C271.048 344.554 270.599 344.403 269.997 344.403C269.373 344.403 268.884 344.54 268.529 344.813C268.175 345.086 267.926 345.378 267.782 345.688L266.541 345.245C266.762 344.728 267.058 344.325 267.427 344.037C267.8 343.746 268.206 343.542 268.646 343.428C269.089 343.31 269.525 343.251 269.953 343.251C270.226 343.251 270.54 343.284 270.895 343.35C271.253 343.413 271.598 343.544 271.931 343.744C272.267 343.943 272.545 344.244 272.767 344.647C272.989 345.049 273.099 345.588 273.099 346.264V351.87H271.792V350.718H271.726C271.637 350.903 271.489 351.1 271.282 351.311C271.076 351.521 270.801 351.7 270.457 351.848C270.114 351.996 269.694 352.07 269.2 352.07ZM269.399 350.895C269.916 350.895 270.352 350.794 270.706 350.591C271.065 350.387 271.334 350.125 271.515 349.804C271.7 349.483 271.792 349.145 271.792 348.79V347.594C271.737 347.66 271.615 347.721 271.426 347.776C271.242 347.828 271.028 347.874 270.784 347.915C270.544 347.952 270.309 347.985 270.08 348.015C269.855 348.041 269.672 348.063 269.532 348.081C269.192 348.125 268.875 348.197 268.579 348.297C268.287 348.393 268.051 348.539 267.87 348.735C267.693 348.927 267.604 349.189 267.604 349.521C267.604 349.976 267.772 350.319 268.108 350.552C268.448 350.781 268.878 350.895 269.399 350.895ZM275.486 351.87V343.362H276.748V344.647H276.837C276.992 344.226 277.273 343.884 277.679 343.622C278.085 343.36 278.543 343.229 279.053 343.229C279.149 343.229 279.269 343.23 279.413 343.234C279.557 343.238 279.666 343.243 279.74 343.251V344.58C279.695 344.569 279.594 344.553 279.435 344.53C279.28 344.504 279.116 344.492 278.942 344.492C278.529 344.492 278.159 344.578 277.834 344.752C277.513 344.922 277.258 345.158 277.07 345.461C276.885 345.76 276.793 346.102 276.793 346.486V351.87H275.486Z" fill="#7C828A"/>
<path d="M170.104 351.87V340.525H176.907V341.744H171.478V345.577H176.397V346.796H171.478V351.87H170.104ZM182.025 352.047C181.205 352.047 180.498 351.866 179.903 351.505C179.313 351.139 178.856 350.629 178.535 349.976C178.218 349.318 178.059 348.554 178.059 347.682C178.059 346.811 178.218 346.043 178.535 345.378C178.856 344.709 179.303 344.189 179.876 343.816C180.452 343.439 181.124 343.251 181.892 343.251C182.335 343.251 182.773 343.325 183.205 343.472C183.637 343.62 184.03 343.86 184.385 344.192C184.739 344.521 185.022 344.957 185.232 345.5C185.443 346.043 185.548 346.711 185.548 347.505V348.059H178.989V346.929H184.219C184.219 346.449 184.123 346.02 183.931 345.644C183.742 345.267 183.473 344.97 183.122 344.752C182.775 344.534 182.365 344.425 181.892 344.425C181.371 344.425 180.921 344.554 180.54 344.813C180.164 345.068 179.874 345.4 179.671 345.81C179.468 346.22 179.366 346.659 179.366 347.128V347.882C179.366 348.524 179.477 349.069 179.698 349.516C179.924 349.959 180.236 350.297 180.635 350.53C181.033 350.759 181.497 350.873 182.025 350.873C182.368 350.873 182.679 350.825 182.956 350.729C183.236 350.629 183.478 350.482 183.681 350.286C183.884 350.086 184.041 349.839 184.152 349.544L185.415 349.898C185.282 350.326 185.059 350.703 184.745 351.028C184.431 351.349 184.043 351.601 183.582 351.781C183.12 351.959 182.601 352.047 182.025 352.047ZM187.714 351.87V340.525H189.021V344.713H189.132C189.228 344.565 189.361 344.377 189.531 344.148C189.705 343.915 189.952 343.709 190.273 343.528C190.598 343.343 191.038 343.251 191.592 343.251C192.308 343.251 192.94 343.43 193.486 343.788C194.033 344.146 194.459 344.654 194.766 345.311C195.072 345.969 195.226 346.744 195.226 347.638C195.226 348.539 195.072 349.32 194.766 349.981C194.459 350.639 194.035 351.148 193.492 351.51C192.949 351.868 192.323 352.047 191.614 352.047C191.067 352.047 190.63 351.957 190.301 351.776C189.972 351.591 189.719 351.383 189.542 351.15C189.365 350.914 189.228 350.718 189.132 350.563H188.977V351.87H187.714ZM188.999 347.616C188.999 348.258 189.093 348.825 189.282 349.316C189.47 349.804 189.745 350.186 190.107 350.463C190.469 350.736 190.912 350.873 191.437 350.873C191.983 350.873 192.439 350.729 192.805 350.441C193.174 350.149 193.451 349.758 193.636 349.267C193.824 348.772 193.918 348.221 193.918 347.616C193.918 347.018 193.826 346.478 193.641 345.998C193.46 345.515 193.185 345.132 192.816 344.852C192.45 344.567 191.991 344.425 191.437 344.425C190.905 344.425 190.458 344.56 190.096 344.829C189.734 345.095 189.461 345.468 189.276 345.948C189.092 346.425 188.999 346.981 188.999 347.616Z" fill="#7C828A"/>
<path d="M88.0876 340.525H89.4614V348.635C89.4614 349.359 89.3284 349.974 89.0625 350.48C88.7966 350.986 88.4218 351.37 87.938 351.632C87.4543 351.894 86.8837 352.025 86.2263 352.025C85.6059 352.025 85.0538 351.912 84.57 351.687C84.0863 351.458 83.7059 351.133 83.4289 350.712C83.1519 350.291 83.0135 349.791 83.0135 349.211H84.3651C84.3651 349.532 84.4445 349.813 84.6033 350.053C84.7658 350.289 84.9874 350.474 85.268 350.607C85.5487 350.74 85.8681 350.806 86.2263 350.806C86.6215 350.806 86.9576 350.723 87.2345 350.557C87.5115 350.391 87.722 350.147 87.866 349.826C88.0137 349.501 88.0876 349.104 88.0876 348.635V340.525ZM94.5411 352.069C94.0019 352.069 93.5126 351.968 93.0731 351.765C92.6336 351.558 92.2847 351.261 92.0261 350.873C91.7676 350.481 91.6384 350.009 91.6384 349.455C91.6384 348.967 91.7344 348.572 91.9264 348.269C92.1185 347.963 92.3751 347.723 92.6964 347.549C93.0177 347.376 93.3722 347.246 93.76 347.161C94.1515 347.073 94.5448 347.003 94.9399 346.951C95.4569 346.884 95.8761 346.835 96.1974 346.801C96.5223 346.764 96.7587 346.704 96.9064 346.619C97.0578 346.534 97.1335 346.386 97.1335 346.175V346.131C97.1335 345.585 96.984 345.16 96.6848 344.857C96.3894 344.554 95.9407 344.403 95.3387 344.403C94.7146 344.403 94.2253 344.539 93.8708 344.813C93.5163 345.086 93.267 345.378 93.123 345.688L91.8821 345.245C92.1037 344.728 92.3991 344.325 92.7684 344.037C93.1414 343.745 93.5477 343.542 93.9871 343.428C94.4303 343.31 94.866 343.251 95.2944 343.251C95.5677 343.251 95.8816 343.284 96.2361 343.35C96.5943 343.413 96.9396 343.544 97.272 343.744C97.6081 343.943 97.8869 344.244 98.1085 344.647C98.33 345.049 98.4408 345.588 98.4408 346.264V351.87H97.1335V350.718H97.067C96.9784 350.902 96.8307 351.1 96.6239 351.311C96.4171 351.521 96.142 351.7 95.7985 351.848C95.4551 351.996 95.0359 352.069 94.5411 352.069ZM94.7405 350.895C95.2575 350.895 95.6933 350.793 96.0478 350.59C96.406 350.387 96.6756 350.125 96.8565 349.804C97.0412 349.482 97.1335 349.145 97.1335 348.79V347.594C97.0781 347.66 96.9563 347.721 96.7679 347.776C96.5833 347.828 96.3691 347.874 96.1253 347.915C95.8853 347.952 95.6508 347.985 95.4218 348.015C95.1966 348.04 95.0138 348.063 94.8734 348.081C94.5337 348.125 94.2161 348.197 93.9206 348.297C93.6289 348.393 93.3925 348.539 93.2116 348.735C93.0343 348.927 92.9457 349.189 92.9457 349.521C92.9457 349.976 93.1137 350.319 93.4498 350.552C93.7895 350.781 94.2198 350.895 94.7405 350.895ZM102.134 346.752V351.87H100.827V343.361H102.09V344.691H102.201C102.4 344.259 102.703 343.912 103.109 343.649C103.515 343.384 104.04 343.251 104.682 343.251C105.259 343.251 105.763 343.369 106.195 343.605C106.627 343.838 106.963 344.192 107.203 344.669C107.443 345.141 107.563 345.74 107.563 346.463V351.87H106.256V346.552C106.256 345.884 106.082 345.363 105.735 344.99C105.388 344.613 104.911 344.425 104.306 344.425C103.888 344.425 103.515 344.515 103.187 344.696C102.862 344.877 102.605 345.141 102.417 345.489C102.228 345.836 102.134 346.257 102.134 346.752Z" fill="#7C828A"/>
<path opacity="0.4" fill-rule="evenodd" clip-rule="evenodd" d="M70.1659 194.055C70.1659 194.055 119.156 221.283 167.334 221.283C215.512 221.283 215.512 147.805 263.691 147.805C311.869 147.805 311.869 182.064 360.047 182.064C406.441 182.064 406.441 293.408 454.619 293.408C502.798 293.408 502.798 249.727 550.976 249.727C599.154 249.727 647.332 299.404 647.332 299.404V331.094C647.332 331.094 599.154 331.094 550.976 331.094C502.798 331.094 502.798 331.094 454.619 331.094C406.441 331.094 406.441 331.094 358.263 331.094C311.869 331.094 311.869 331.094 263.691 331.094C215.512 331.094 215.512 331.094 167.334 331.094C119.156 331.094 70.9777 331.094 70.9777 331.094L70.1659 194.055Z" fill="url(#paint0_linear_368_8583)"/>
<path fill-rule="evenodd" clip-rule="evenodd" d="M262.584 147.805C273.984 147.805 283.334 149.618 291.782 153.13C297.433 155.479 301.455 157.815 308.647 162.716L313.643 166.155C321.161 171.304 325.168 173.662 330.805 176.005C338.589 179.24 347.131 180.957 357.52 181.071L358.641 181.077C369.611 181.077 378.431 186.605 386.354 197.229L387.321 198.556C392.358 205.598 396.259 213.118 402.655 227.503L408.447 240.699C415.541 256.745 419.681 264.761 425.211 272.336L425.488 272.715C433.547 283.641 442.379 289.213 452.919 289.213C463.76 289.213 472.598 287.028 480.65 282.76L481.517 282.293C487.079 279.25 491.242 275.999 499.349 268.858L502.445 266.137C509.874 259.663 513.93 256.638 519.673 253.595C528.131 249.112 537.518 246.791 548.976 246.791C570.427 246.791 593.178 255.932 615.892 271.143C623.804 276.442 631.147 282.116 637.737 287.79C639.755 289.528 641.575 291.157 643.182 292.646L644.219 293.616L646.032 295.366L644.032 295.996L643.489 295.462C643.038 295.023 642.505 294.514 641.892 293.94L640.526 292.674C639.108 291.374 637.536 289.974 635.818 288.495C629.275 282.862 621.985 277.229 614.137 271.973C591.825 257.031 569.549 248.081 548.976 248.081C538.134 248.081 529.296 250.266 521.244 254.534L519.952 255.235C514.881 258.056 510.885 261.136 503.762 267.368L499.45 271.157C492.021 277.631 487.965 280.656 482.221 283.699C473.764 288.182 464.376 290.503 452.919 290.503C441.355 290.503 432.076 284.775 423.805 273.792L422.812 272.444C417.459 265.035 413.37 257.132 406.582 241.823L400.782 228.608C394.089 213.508 390.135 205.872 384.927 198.666L384.657 198.294C377.085 187.923 368.868 182.561 359.171 182.372L358.641 182.367C347.24 182.367 337.891 180.554 329.443 177.042L328.401 176.601C323.105 174.317 319.057 171.895 311.894 166.989L307.581 164.017C300.063 158.868 296.057 156.51 290.42 154.167C282.358 150.816 273.482 149.095 262.584 149.095C252.134 149.095 243.494 152.593 235.575 159.47L235.036 159.944C228.839 165.469 224.603 171.023 215.627 184.359L213.316 187.773C205.961 198.567 201.92 203.679 196.349 208.704L196.013 209.005C187.569 216.533 178.139 220.456 166.527 220.456C134.599 220.456 102.467 211.798 70.142 194.519L68.8659 193.833L70.4553 192.903C102.816 210.425 134.837 219.166 166.527 219.166C177.214 219.166 186.009 215.507 194.074 208.317L195.055 207.427C199.988 202.869 203.841 198.01 210.327 188.553L216.661 179.22C223.617 169.078 227.576 164.178 233.098 159.256C241.542 151.728 250.972 147.805 262.584 147.805Z" fill="#7F00AC" stroke="#7F00AC" stroke-width="2.59985"/>
<rect x="155.311" y="177.053" width="51.997" height="22.0987" rx="11.0494" fill="#7F00AC"/>
<path d="M171.629 191.603V190.451L174.322 187.958C174.551 187.736 174.743 187.537 174.898 187.36C175.055 187.182 175.175 187.009 175.256 186.839C175.337 186.667 175.378 186.481 175.378 186.281C175.378 186.06 175.327 185.869 175.226 185.709C175.125 185.546 174.988 185.422 174.813 185.336C174.638 185.247 174.44 185.203 174.218 185.203C173.987 185.203 173.785 185.25 173.613 185.343C173.44 185.437 173.307 185.571 173.214 185.746C173.12 185.921 173.073 186.129 173.073 186.37H171.556C171.556 185.875 171.668 185.445 171.892 185.081C172.116 184.717 172.43 184.435 172.833 184.235C173.237 184.036 173.702 183.936 174.229 183.936C174.771 183.936 175.242 184.032 175.644 184.224C176.047 184.414 176.361 184.677 176.585 185.015C176.809 185.352 176.921 185.738 176.921 186.174C176.921 186.46 176.865 186.742 176.752 187.02C176.641 187.298 176.443 187.607 176.157 187.947C175.871 188.284 175.469 188.689 174.949 189.162L173.845 190.244V190.295H177.021V191.603H171.629ZM181.001 191.706C180.433 191.706 179.927 191.614 179.483 191.429C179.043 191.242 178.697 190.987 178.446 190.665C178.195 190.342 178.069 189.977 178.069 189.568C178.069 189.253 178.14 188.964 178.283 188.7C178.429 188.434 178.625 188.214 178.874 188.039C179.123 187.862 179.401 187.749 179.709 187.699V187.648C179.305 187.566 178.978 187.371 178.726 187.06C178.475 186.748 178.35 186.385 178.35 185.971C178.35 185.58 178.464 185.231 178.693 184.926C178.922 184.618 179.236 184.377 179.635 184.202C180.036 184.025 180.492 183.936 181.001 183.936C181.511 183.936 181.965 184.025 182.364 184.202C182.765 184.379 183.08 184.622 183.309 184.93C183.538 185.235 183.654 185.582 183.657 185.971C183.654 186.387 183.526 186.75 183.272 187.06C183.019 187.371 182.694 187.566 182.298 187.648V187.699C182.6 187.749 182.875 187.862 183.121 188.039C183.37 188.214 183.567 188.434 183.712 188.7C183.86 188.964 183.935 189.253 183.937 189.568C183.935 189.977 183.808 190.342 183.557 190.665C183.306 190.987 182.959 191.242 182.515 191.429C182.075 191.614 181.57 191.706 181.001 191.706ZM181.001 190.532C181.255 190.532 181.476 190.486 181.666 190.395C181.856 190.302 182.003 190.174 182.109 190.011C182.218 189.846 182.272 189.657 182.272 189.442C182.272 189.223 182.216 189.03 182.105 188.863C181.995 188.693 181.845 188.56 181.655 188.464C181.465 188.365 181.247 188.316 181.001 188.316C180.758 188.316 180.54 188.365 180.348 188.464C180.156 188.56 180.004 188.693 179.893 188.863C179.785 189.03 179.731 189.223 179.731 189.442C179.731 189.657 179.784 189.846 179.89 190.011C179.996 190.174 180.145 190.302 180.337 190.395C180.529 190.486 180.75 190.532 181.001 190.532ZM181.001 187.153C181.213 187.153 181.401 187.11 181.566 187.024C181.731 186.937 181.861 186.818 181.954 186.665C182.048 186.513 182.094 186.337 182.094 186.137C182.094 185.94 182.048 185.768 181.954 185.62C181.861 185.47 181.732 185.353 181.57 185.269C181.408 185.183 181.218 185.14 181.001 185.14C180.787 185.14 180.598 185.183 180.433 185.269C180.268 185.353 180.138 185.47 180.045 185.62C179.954 185.768 179.908 185.94 179.908 186.137C179.908 186.337 179.955 186.513 180.049 186.665C180.142 186.818 180.271 186.937 180.436 187.024C180.601 187.11 180.79 187.153 181.001 187.153ZM188.021 191.769C187.386 191.767 186.839 191.61 186.381 191.3C185.926 190.99 185.575 190.54 185.329 189.952C185.085 189.364 184.964 188.656 184.967 187.829C184.967 187.004 185.088 186.301 185.332 185.72C185.578 185.139 185.929 184.697 186.385 184.394C186.843 184.089 187.388 183.936 188.021 183.936C188.653 183.936 189.198 184.089 189.653 184.394C190.111 184.699 190.463 185.143 190.709 185.724C190.955 186.302 191.077 187.004 191.075 187.829C191.075 188.658 190.952 189.367 190.705 189.956C190.462 190.544 190.112 190.993 189.657 191.304C189.201 191.614 188.656 191.769 188.021 191.769ZM188.021 190.443C188.454 190.443 188.8 190.225 189.058 189.79C189.317 189.354 189.445 188.7 189.442 187.829C189.442 187.255 189.383 186.777 189.265 186.396C189.15 186.014 188.985 185.727 188.77 185.535C188.559 185.343 188.309 185.247 188.021 185.247C187.59 185.247 187.245 185.463 186.987 185.893C186.728 186.324 186.598 186.969 186.595 187.829C186.595 188.41 186.653 188.895 186.769 189.284C186.887 189.67 187.053 189.961 187.267 190.155C187.482 190.347 187.733 190.443 188.021 190.443Z" fill="white"/>
<path d="M181.309 206.952L185.812 199.152H176.806L181.309 206.952Z" fill="#7F00AC"/>
<circle cx="181.309" cy="216.051" r="4.22475" fill="#D080D2" stroke="white" stroke-width="1.94989"/>
<line x1="61.7164" y1="287.027" x2="658.382" y2="287.027" stroke="#D9D9D9" stroke-opacity="0.5" stroke-width="1.03994"/>
<line x1="60.4162" y1="329.925" x2="658.381" y2="329.925" stroke="#D9D9D9" stroke-opacity="0.5" stroke-width="1.03994"/>
<line x1="61.7164" y1="246.729" x2="658.382" y2="246.729" stroke="#D9D9D9" stroke-opacity="0.5" stroke-width="1.03994"/>
<line x1="61.7164" y1="205.132" x2="658.382" y2="205.132" stroke="#D9D9D9" stroke-opacity="0.5" stroke-width="1.03994"/>
<line x1="61.7164" y1="164.834" x2="658.382" y2="164.834" stroke="#D9D9D9" stroke-opacity="0.5" stroke-width="1.03994"/>
<line x1="61.7164" y1="124.537" x2="658.382" y2="124.537" stroke="#D9D9D9" stroke-opacity="0.5" stroke-width="1.03994"/>
<rect x="92.9145" y="383.741" width="500.471" height="29.1997" rx="11.6993" fill="#E0E0E0"/>
<path d="M123.051 391.106H125.042V400.49C125.042 401.338 124.874 402.064 124.538 402.667C124.206 403.271 123.738 403.732 123.135 404.05C122.532 404.365 121.825 404.522 121.015 404.522C120.27 404.522 119.6 404.387 119.005 404.115C118.415 403.844 117.948 403.449 117.603 402.932C117.263 402.411 117.093 401.778 117.093 401.032H119.077C119.077 401.399 119.161 401.715 119.329 401.982C119.501 402.25 119.736 402.459 120.033 402.609C120.335 402.756 120.679 402.829 121.067 402.829C121.489 402.829 121.847 402.741 122.14 402.564C122.437 402.383 122.663 402.118 122.818 401.769C122.974 401.42 123.051 400.994 123.051 400.49V391.106ZM130.682 404.561C130.053 404.561 129.484 404.445 128.976 404.212C128.467 403.975 128.065 403.633 127.767 403.184C127.474 402.736 127.328 402.187 127.328 401.536C127.328 400.976 127.436 400.515 127.651 400.153C127.866 399.792 128.157 399.505 128.523 399.294C128.89 399.083 129.299 398.923 129.751 398.816C130.204 398.708 130.665 398.626 131.134 398.57C131.729 398.501 132.211 398.445 132.582 398.402C132.953 398.355 133.222 398.279 133.39 398.176C133.558 398.072 133.642 397.904 133.642 397.672V397.627C133.642 397.062 133.482 396.625 133.164 396.315C132.849 396.004 132.379 395.849 131.755 395.849C131.104 395.849 130.591 395.994 130.217 396.282C129.846 396.567 129.59 396.883 129.448 397.232L127.632 396.819C127.847 396.216 128.162 395.729 128.575 395.358C128.993 394.983 129.473 394.712 130.016 394.544C130.559 394.372 131.13 394.285 131.729 394.285C132.125 394.285 132.545 394.333 132.989 394.428C133.437 394.518 133.855 394.686 134.243 394.932C134.635 395.177 134.956 395.528 135.206 395.985C135.456 396.437 135.581 397.026 135.581 397.749V404.341H133.694V402.984H133.616C133.491 403.234 133.304 403.48 133.054 403.721C132.804 403.962 132.483 404.163 132.091 404.322C131.699 404.481 131.229 404.561 130.682 404.561ZM131.102 403.01C131.636 403.01 132.093 402.904 132.472 402.693C132.856 402.482 133.146 402.206 133.345 401.866C133.547 401.521 133.648 401.153 133.648 400.761V399.481C133.579 399.55 133.446 399.615 133.248 399.675C133.054 399.731 132.832 399.781 132.582 399.824C132.332 399.863 132.089 399.899 131.852 399.934C131.615 399.964 131.417 399.99 131.257 400.011C130.882 400.059 130.54 400.138 130.23 400.25C129.924 400.362 129.678 400.524 129.493 400.735C129.312 400.942 129.221 401.218 129.221 401.562C129.221 402.041 129.398 402.403 129.751 402.648C130.105 402.889 130.555 403.01 131.102 403.01ZM140.087 398.447V404.341H138.154V394.415H140.009V396.03H140.132C140.36 395.505 140.718 395.082 141.205 394.764C141.696 394.445 142.314 394.285 143.06 394.285C143.736 394.285 144.328 394.428 144.837 394.712C145.345 394.992 145.739 395.41 146.02 395.966C146.3 396.521 146.44 397.209 146.44 398.027V404.341H144.507V398.26C144.507 397.54 144.32 396.978 143.945 396.573C143.57 396.164 143.055 395.959 142.4 395.959C141.952 395.959 141.554 396.056 141.205 396.25C140.86 396.444 140.587 396.728 140.384 397.103C140.186 397.474 140.087 397.922 140.087 398.447ZM159.696 396.883V398.564H153.828V396.883H159.696ZM172.387 391.106H174.378V400.49C174.378 401.338 174.21 402.064 173.874 402.667C173.542 403.271 173.075 403.732 172.471 404.05C171.868 404.365 171.162 404.522 170.352 404.522C169.606 404.522 168.936 404.387 168.342 404.115C167.751 403.844 167.284 403.449 166.939 402.932C166.599 402.411 166.429 401.778 166.429 401.032H168.413C168.413 401.399 168.497 401.715 168.665 401.982C168.837 402.25 169.072 402.459 169.369 402.609C169.671 402.756 170.016 402.829 170.403 402.829C170.826 402.829 171.183 402.741 171.476 402.564C171.773 402.383 172 402.118 172.155 401.769C172.31 401.42 172.387 400.994 172.387 400.49V391.106ZM183.418 400.225V394.415H185.356V404.341H183.456V402.622H183.353C183.125 403.152 182.758 403.594 182.254 403.947C181.754 404.296 181.132 404.471 180.387 404.471C179.749 404.471 179.184 404.331 178.693 404.05C178.206 403.766 177.823 403.346 177.543 402.79C177.267 402.234 177.129 401.547 177.129 400.729V394.415H179.062V400.496C179.062 401.172 179.249 401.711 179.624 402.112C179.999 402.512 180.486 402.713 181.084 402.713C181.446 402.713 181.806 402.622 182.164 402.441C182.526 402.26 182.825 401.987 183.062 401.621C183.303 401.254 183.422 400.789 183.418 400.225ZM189.885 391.106V404.341H187.953V391.106H189.885Z" fill="black"/>
<line x1="217.735" y1="410.341" x2="217.735" y2="386.341" stroke="black" stroke-width="1.94989"/>
<path d="M247.064 398.29H574.889" stroke="#9747FF" stroke-width="3.89977" stroke-linecap="round"/>
<path d="M246.008 398.316H301.706" stroke="#828282" stroke-width="3.89977" stroke-linecap="round"/>
<circle cx="306.847" cy="398.341" r="9.09947" fill="white" stroke="#828282" stroke-width="2.59985"/>
<path d="M302.514 397.25V400.023" stroke="#828282" stroke-width="2.59985" stroke-linecap="round" stroke-linejoin="round"/>
<path d="M306.846 395.741V401.53" stroke="#828282" stroke-width="2.59985" stroke-linecap="round" stroke-linejoin="round"/>
<path d="M311.179 397.25V400.023" stroke="#828282" stroke-width="2.59985" stroke-linecap="round" stroke-linejoin="round"/>
<path d="M449.328 398.341L574.889 398.341" stroke="#828282" stroke-width="3.89977" stroke-linecap="round"/>
<circle cx="453.423" cy="398.341" r="9.09947" fill="white" stroke="#828282" stroke-width="2.59985"/>
<path d="M449.09 397.25V400.023" stroke="#828282" stroke-width="2.59985" stroke-linecap="round" stroke-linejoin="round"/>
<path d="M453.423 395.741V401.53" stroke="#828282" stroke-width="2.59985" stroke-linecap="round" stroke-linejoin="round"/>
<path d="M457.755 397.25V400.023" stroke="#828282" stroke-width="2.59985" stroke-linecap="round" stroke-linejoin="round"/>
<defs>
<filter id="filter0_d_368_8583" x="458.492" y="25.6609" width="103.396" height="39.5991" filterUnits="userSpaceOnUse" color-interpolation-filters="sRGB">
<feFlood flood-opacity="0" result="BackgroundImageFix"/>
<feColorMatrix in="SourceAlpha" type="matrix" values="0 0 0 0 0 0 0 0 0 0 0 0 0 0 0 0 0 0 127 0" result="hardAlpha"/>
<feOffset dy="2.59985"/>
<feGaussianBlur stdDeviation="1.29992"/>
<feComposite in2="hardAlpha" operator="out"/>
<feColorMatrix type="matrix" values="0 0 0 0 0.8 0 0 0 0 0.882353 0 0 0 0 0.929412 0 0 0 1 0"/>
<feBlend mode="normal" in2="BackgroundImageFix" result="effect1_dropShadow_368_8583"/>
<feBlend mode="normal" in="SourceGraphic" in2="effect1_dropShadow_368_8583" result="shape"/>
</filter>
<filter id="filter1_d_368_8583" x="577.488" y="24.9623" width="37.6978" height="37.6979" filterUnits="userSpaceOnUse" color-interpolation-filters="sRGB">
<feFlood flood-opacity="0" result="BackgroundImageFix"/>
<feColorMatrix in="SourceAlpha" type="matrix" values="0 0 0 0 0 0 0 0 0 0 0 0 0 0 0 0 0 0 127 0" result="hardAlpha"/>
<feOffset/>
<feGaussianBlur stdDeviation="1.29992"/>
<feComposite in2="hardAlpha" operator="out"/>
<feColorMatrix type="matrix" values="0 0 0 0 0.8 0 0 0 0 0.882353 0 0 0 0 0.929412 0 0 0 1 0"/>
<feBlend mode="normal" in2="BackgroundImageFix" result="effect1_dropShadow_368_8583"/>
<feBlend mode="normal" in="SourceGraphic" in2="effect1_dropShadow_368_8583" result="shape"/>
</filter>
<filter id="filter2_d_368_8583" x="630.784" y="24.9623" width="37.6978" height="37.6979" filterUnits="userSpaceOnUse" color-interpolation-filters="sRGB">
<feFlood flood-opacity="0" result="BackgroundImageFix"/>
<feColorMatrix in="SourceAlpha" type="matrix" values="0 0 0 0 0 0 0 0 0 0 0 0 0 0 0 0 0 0 127 0" result="hardAlpha"/>
<feOffset/>
<feGaussianBlur stdDeviation="1.29992"/>
<feComposite in2="hardAlpha" operator="out"/>
<feColorMatrix type="matrix" values="0 0 0 0 0.8 0 0 0 0 0.882353 0 0 0 0 0.929412 0 0 0 1 0"/>
<feBlend mode="normal" in2="BackgroundImageFix" result="effect1_dropShadow_368_8583"/>
<feBlend mode="normal" in="SourceGraphic" in2="effect1_dropShadow_368_8583" result="shape"/>
</filter>
<linearGradient id="paint0_linear_368_8583" x1="75.9317" y1="148.095" x2="75.9317" y2="327.722" gradientUnits="userSpaceOnUse">
<stop stop-color="#7F00AC"/>
<stop offset="1" stop-color="#7F00AC" stop-opacity="0.06"/>
</linearGradient>
</defs>
</svg>
