<svg width="24" height="23" viewBox="0 0 24 23" fill="none" xmlns="http://www.w3.org/2000/svg">
<path d="M13.67 11C13.67 10.4477 13.2223 10 12.67 10C12.1177 10 11.67 10.4477 11.67 11C11.67 11.5523 12.1177 12 12.67 12C13.2223 12 13.67 11.5523 13.67 11Z" stroke="#DDDDDD" stroke-width="2" stroke-linecap="round" stroke-linejoin="round"/>
<path d="M13.67 5C13.67 4.44772 13.2223 4 12.67 4C12.1177 4 11.67 4.44772 11.67 5C11.67 5.55228 12.1177 6 12.67 6C13.2223 6 13.67 5.55228 13.67 5Z" stroke="#DDDDDD" stroke-width="2" stroke-linecap="round" stroke-linejoin="round"/>
<path d="M13.67 18C13.67 17.4477 13.2223 17 12.67 17C12.1177 17 11.67 17.4477 11.67 18C11.67 18.5523 12.1177 19 12.67 19C13.2223 19 13.67 18.5523 13.67 18Z" stroke="#DDDDDD" stroke-width="2" stroke-linecap="round" stroke-linejoin="round"/>
</svg>
