<svg width="49" height="49" viewBox="0 0 49 49" fill="none" xmlns="http://www.w3.org/2000/svg">
<path d="M1.99994 41.375C1.99994 38.3913 3.1852 35.5298 5.29499 33.42C7.40477 31.3103 10.2663 30.125 13.2499 30.125H35.7499C38.7336 30.125 41.5951 31.3103 43.7049 33.42C45.8147 35.5298 46.9999 38.3913 46.9999 41.375C46.9999 42.8668 46.4073 44.2976 45.3524 45.3525C44.2975 46.4074 42.8668 47 41.3749 47H7.62494C6.1331 47 4.70236 46.4074 3.64746 45.3525C2.59257 44.2976 1.99994 42.8668 1.99994 41.375Z" stroke="white" stroke-width="2.75" stroke-linejoin="round"/>
<path d="M24.4999 18.875C29.1598 18.875 32.9374 15.0974 32.9374 10.4375C32.9374 5.7776 29.1598 2 24.4999 2C19.84 2 16.0624 5.7776 16.0624 10.4375C16.0624 15.0974 19.84 18.875 24.4999 18.875Z" stroke="white" stroke-width="2.75"/>
</svg>
