<svg width="44" height="41" viewBox="0 0 44 41" fill="none" xmlns="http://www.w3.org/2000/svg">
<path d="M23.9382 33.6166L26.0026 35.7249V39.2826C26.0026 39.7657 25.6073 40.1609 25.1242 40.1609H0.878689C0.39552 40.1609 0.000306383 39.7657 0.000306383 39.2826L0 5.72537C0 5.2422 0.395237 4.84699 0.878382 4.84699H7.5986V6.91137H2.372C2.24025 6.91137 2.10851 7.04312 2.10851 7.17486V37.7014C2.10851 37.8331 2.24025 37.9648 2.372 37.9648H23.6747C23.8064 37.9648 23.9382 37.8331 23.9382 37.7014L23.9382 33.6166ZM23.9382 7.21891V18.0679C24.5969 17.8923 25.2997 17.8044 26.0026 17.8482V5.72546C26.0026 5.2423 25.6073 4.84708 25.1242 4.84708H18.4478V6.91146H23.6747C23.8503 6.95528 23.9382 7.08702 23.9382 7.21877L23.9382 7.21891ZM17.5691 4.62753C17.5691 3.66122 16.7787 2.91453 15.8561 2.91453H15.1095C15.0215 0.147304 11.0248 0.147304 10.9369 2.91453H10.1902C9.2239 2.91453 8.47721 3.70499 8.47721 4.62753V6.95545H17.5693L17.5691 4.62753ZM12.2108 15.5644V18.3754H13.8797V15.5644C13.8797 15.3009 14.0993 15.0812 14.3628 15.0812H17.1739V13.4558H14.3191C14.0556 13.4558 13.8359 13.2361 13.8359 12.9726V10.1616H12.1667V12.9726C12.1667 13.2361 11.9471 13.4558 11.6836 13.4558H8.8725V15.125H11.6836C11.9912 15.125 12.2108 15.3009 12.2108 15.5644ZM7.29121 22.2404H5.44645V24.0852L7.29121 24.0855V22.2404ZM7.29121 32.6502H5.44645V34.4949H7.29121V32.6502ZM2.98684 7.83367H23.0597V18.3752C18.2721 20.1761 16.9106 26.7206 20.6438 30.2783L23.0597 32.6942V37.0865H2.98684V7.83367ZM17.8767 34.0557H10.1464C9.88287 34.0557 9.6632 34.2754 9.6632 34.5389C9.6632 34.8024 9.88287 35.0221 10.1464 35.0221H17.8767C18.4916 34.9782 18.4916 34.0557 17.8767 34.0557ZM9.66313 29.312C9.66313 29.5755 9.88281 29.7952 10.1463 29.7952H17.8767C18.4916 29.7952 18.4916 28.8727 17.8767 28.8727L10.1463 28.873C9.88251 28.8288 9.66313 29.0485 9.66313 29.312ZM10.1463 27.9067H14.89C15.5049 27.9067 15.5049 26.9841 14.89 26.9841H10.1463C9.5314 26.9841 9.5314 27.9504 10.1463 27.9067ZM9.66313 32.6503C9.66313 32.9138 9.88281 33.1335 10.1463 33.1335H14.89C15.1535 33.1335 15.3732 32.9138 15.3732 32.6503C15.3732 32.3868 15.1535 32.1672 14.89 32.1672H10.1463C9.88251 32.211 9.66313 32.4307 9.66313 32.6503ZM17.8767 23.6461H10.1464C9.88287 23.6461 9.6632 23.8658 9.6632 24.1293C9.6632 24.3928 9.88287 24.6125 10.1464 24.6125H17.8767C18.4916 24.5683 18.4916 23.6461 17.8767 23.6461ZM10.1464 22.7236H14.89C15.505 22.7236 15.505 21.801 14.89 21.801H10.1464C9.53146 21.8013 9.53146 22.7236 10.1464 22.7236ZM7.99406 15.4764C7.99406 15.784 8.25755 16.0475 8.56515 16.0475H11.2445V18.7268C11.2445 19.0344 11.5079 19.2979 11.8156 19.2979H14.1872C14.4948 19.2979 14.7583 19.0344 14.7583 18.7268V16.0475H17.4376C17.7452 16.0475 18.0087 15.784 18.0087 15.4764V13.1047C18.0087 12.7971 17.7452 12.5337 17.4376 12.5337H14.7583V9.85435C14.7583 9.54674 14.4948 9.28326 14.1872 9.28326H11.8156C11.5079 9.28326 11.2445 9.54675 11.2445 9.85435V12.5337H8.56515C8.25754 12.5337 7.99406 12.7971 7.99406 13.1047V15.4764ZM4.5243 24.2171C4.5243 24.6565 4.87572 25.0517 5.35891 25.0517H7.37953C7.81889 25.0517 8.21415 24.7003 8.21415 24.2171V22.1965C8.21415 21.7571 7.81891 21.3619 7.37953 21.3619H5.35891C4.87575 21.3619 4.5243 21.7133 4.5243 22.1965V24.2171ZM4.5243 29.3999C4.5243 29.883 4.87572 30.2345 5.35891 30.2345H7.37953C7.81889 30.2345 8.21415 29.8831 8.21415 29.3999V27.3793C8.21415 26.9399 7.81891 26.5446 7.37953 26.5446H5.35891C4.87575 26.5446 4.5243 26.8961 4.5243 27.3793V29.3999ZM4.5243 34.6268C4.5243 35.0661 4.87572 35.4614 5.35891 35.4614H7.37953C7.81889 35.4614 8.21415 35.11 8.21415 34.6268V32.5624C8.21415 32.1231 7.81891 31.7278 7.37953 31.7278H5.35891C4.87575 31.7278 4.5243 32.0792 4.5243 32.5624V34.6268ZM7.29121 27.4673H5.44645V29.312H7.29121V27.4673ZM41.639 29.6634L31.4489 39.8536C28.594 36.9987 23.982 32.4305 21.2587 29.6634C18.755 27.1596 18.755 23.1188 21.2587 20.6153C23.7183 18.1115 27.8472 18.1115 30.3069 20.6153L31.4488 21.7572L32.5907 20.6153C38.8283 14.8614 47.3936 23.4263 41.6396 29.6634H41.639ZM38.4324 27.2917H36.0607L35.1823 25.886C35.0068 25.6225 34.5674 25.6225 34.3919 25.886L32.7227 28.4774L31.0536 25.886C30.9656 25.7543 30.8339 25.6664 30.6583 25.6664C30.4828 25.6664 30.3507 25.7543 30.2631 25.886L28.5939 28.4774C28.506 28.3457 27.979 27.3793 27.8035 27.3355C27.7597 27.2037 25.3876 27.2917 25.2559 27.2917C24.641 27.2917 24.641 28.2142 25.2559 28.2142H27.3203L28.1987 29.6199C28.2866 29.7517 28.4184 29.8396 28.5939 29.8396C28.7695 29.8396 28.9016 29.7517 28.9892 29.6199L30.6583 27.0285L32.3275 29.6199C32.4154 29.7517 32.5472 29.8396 32.7227 29.8396C32.8983 29.8396 33.0303 29.7517 33.118 29.6199L34.7871 27.0285C34.875 27.1603 35.402 28.1266 35.5776 28.1705C35.4896 28.3022 38.3886 28.2143 38.4324 28.2143C39.0473 28.214 39.0473 27.3356 38.4324 27.2917Z" fill="white"/>
</svg>
