<svg width="59" height="58" viewBox="0 0 59 58" fill="none" xmlns="http://www.w3.org/2000/svg">
<mask id="path-1-inside-1_492_2517" fill="white">
<path d="M45.732 38.5888L45.4645 38.6557L48.5213 28.2301H48.521C48.8399 27.0952 48.793 25.8889 48.3873 24.7824L42.3457 10.775C42.2175 10.2885 41.9338 9.85714 41.5384 9.54609C41.143 9.23499 40.6568 9.06118 40.1538 9.05116C38.9597 9.05116 38.0284 10.0443 37.833 11.372L28.3386 8.58298C27.2021 8.26412 25.9942 8.31096 24.8858 8.71673L23.1619 9.51436L12.8695 13.9606L10.9499 14.758C10.4634 14.9075 10.0353 15.2047 9.72546 15.6089C9.41533 16.0127 9.23926 16.5031 9.22084 17.0119C9.22084 18.3397 10.4817 19.4049 12.0098 19.4049H12.4731L12.7406 19.338L9.75105 29.6916C9.43219 30.8281 9.47903 32.0361 9.8848 33.1445L15.9263 47.1519C16.0717 47.6287 16.3596 48.0497 16.7518 48.3579C17.1436 48.6661 17.6205 48.8467 18.1183 48.8758C18.7269 48.8344 19.301 48.5785 19.7384 48.1537C20.1755 47.7286 20.4479 47.1619 20.506 46.5549L29.9333 49.339V49.3387C30.437 49.4731 30.9558 49.5406 31.4772 49.5396C32.1337 49.5306 32.7847 49.4195 33.4069 49.2101L47.3217 43.1689C47.8085 43.0184 48.2369 42.7202 48.5467 42.3154C48.8565 41.9103 49.0326 41.4192 49.0507 40.9098C49.0507 39.4482 47.5068 38.337 45.7315 38.589L45.732 38.5888ZM39.6905 24.4474C39.2615 24.3957 38.8263 24.4684 38.4377 24.6574C38.0487 24.8464 37.7228 25.1433 37.4983 25.5129L34.1123 30.952C33.6852 31.6533 33.4559 32.4571 33.4484 33.278V33.4117L34.5139 40.3795L33.5825 40.5132C33.6368 40.0771 33.5583 39.6345 33.357 39.2433C33.1561 38.8524 32.8417 38.531 32.4554 38.3213L27.1449 34.8681C26.4452 34.442 25.6434 34.2127 24.8241 34.2043H24.7572L18.8443 35.1308L18.5768 33.4069L18.8443 33.4066C19.6374 33.384 20.3636 32.9569 20.769 32.2746L24.1602 26.8969C24.587 26.1978 24.8163 25.3957 24.8241 24.5764V24.5095L23.7586 17.5469L24.69 17.4131C24.6367 17.8493 24.7155 18.2915 24.9165 18.6825C25.1174 19.0734 25.4311 19.3948 25.8172 19.6051L31.1948 22.9859C31.8933 23.4146 32.6957 23.6443 33.5154 23.6498H33.6491L39.5566 22.7236L39.6905 24.4474ZM12.3447 18.0767H12.0772C11.2796 18.0767 10.5333 17.5621 10.5333 17.0116C10.5937 16.536 10.9352 16.1439 11.3978 16.0185L13.3891 15.154L23.6815 10.7077L25.4105 9.97694C26.2418 9.69523 27.1388 9.67197 27.9837 9.91006L37.8841 12.8331L39.2787 21.4632L33.3195 22.3226C32.7671 22.3487 32.2224 22.1853 31.7759 21.8593L26.4138 18.4733C26.2096 18.3787 26.0523 18.2055 25.9777 17.9933C25.903 17.7814 25.9176 17.5478 26.0174 17.3462C26.0852 17.2205 26.1738 17.1075 26.2797 17.0118C26.5621 16.7999 26.8971 16.6694 27.2483 16.6348C27.5994 16.6002 27.9535 16.6632 28.2714 16.8164L33.5822 19.5385C33.7285 19.6347 33.9101 19.6603 34.0774 19.6086C34.2448 19.5566 34.3801 19.4328 34.4467 19.271C34.5378 19.1127 34.5607 18.924 34.5103 18.7486C34.4599 18.5728 34.3404 18.4252 34.1789 18.3396L28.8684 15.6224C28.3396 15.3646 27.7516 15.2528 27.1652 15.299C26.5789 15.3449 26.0155 15.5474 25.5337 15.885L22.8785 16.2863L13.6977 17.8095L12.3447 18.0767ZM46.8584 41.9076L32.9179 47.944C32.0877 48.2309 31.1889 48.2541 30.3448 48.0108L20.4386 45.093L19.044 36.4629L24.9515 35.5315H24.9518C25.5032 35.5183 26.0444 35.6824 26.4954 36L31.873 39.3808C32.0775 39.4764 32.2348 39.6505 32.3094 39.8634C32.384 40.0766 32.3695 40.3105 32.2694 40.5128C32.2015 40.6368 32.1127 40.7483 32.0067 40.8423C31.7253 41.0552 31.3903 41.1864 31.0392 41.2219C30.688 41.2571 30.3339 41.1954 30.0154 41.0429L24.6891 38.3208C24.5392 38.2339 24.3603 38.2116 24.1936 38.2594C24.0269 38.3076 23.887 38.421 23.8056 38.5741C23.7245 38.7276 23.7093 38.9072 23.7632 39.0719C23.8175 39.2367 23.9361 39.3724 24.0924 39.4477L29.4032 42.1697H29.4029C29.8594 42.383 30.3556 42.4967 30.8592 42.5044C31.5331 42.5122 32.1918 42.3028 32.7375 41.9074L35.3927 41.5062L45.8803 39.8492C46.7396 39.7155 47.6041 40.2456 47.6041 40.9091C47.7379 41.3724 47.4035 41.7068 46.8734 41.9074L46.8584 41.9076Z"/>
</mask>
<path d="M45.732 38.5888L45.4645 38.6557L48.5213 28.2301H48.521C48.8399 27.0952 48.793 25.8889 48.3873 24.7824L42.3457 10.775C42.2175 10.2885 41.9338 9.85714 41.5384 9.54609C41.143 9.23499 40.6568 9.06118 40.1538 9.05116C38.9597 9.05116 38.0284 10.0443 37.833 11.372L28.3386 8.58298C27.2021 8.26412 25.9942 8.31096 24.8858 8.71673L23.1619 9.51436L12.8695 13.9606L10.9499 14.758C10.4634 14.9075 10.0353 15.2047 9.72546 15.6089C9.41533 16.0127 9.23926 16.5031 9.22084 17.0119C9.22084 18.3397 10.4817 19.4049 12.0098 19.4049H12.4731L12.7406 19.338L9.75105 29.6916C9.43219 30.8281 9.47903 32.0361 9.8848 33.1445L15.9263 47.1519C16.0717 47.6287 16.3596 48.0497 16.7518 48.3579C17.1436 48.6661 17.6205 48.8467 18.1183 48.8758C18.7269 48.8344 19.301 48.5785 19.7384 48.1537C20.1755 47.7286 20.4479 47.1619 20.506 46.5549L29.9333 49.339V49.3387C30.437 49.4731 30.9558 49.5406 31.4772 49.5396C32.1337 49.5306 32.7847 49.4195 33.4069 49.2101L47.3217 43.1689C47.8085 43.0184 48.2369 42.7202 48.5467 42.3154C48.8565 41.9103 49.0326 41.4192 49.0507 40.9098C49.0507 39.4482 47.5068 38.337 45.7315 38.589L45.732 38.5888ZM39.6905 24.4474C39.2615 24.3957 38.8263 24.4684 38.4377 24.6574C38.0487 24.8464 37.7228 25.1433 37.4983 25.5129L34.1123 30.952C33.6852 31.6533 33.4559 32.4571 33.4484 33.278V33.4117L34.5139 40.3795L33.5825 40.5132C33.6368 40.0771 33.5583 39.6345 33.357 39.2433C33.1561 38.8524 32.8417 38.531 32.4554 38.3213L27.1449 34.8681C26.4452 34.442 25.6434 34.2127 24.8241 34.2043H24.7572L18.8443 35.1308L18.5768 33.4069L18.8443 33.4066C19.6374 33.384 20.3636 32.9569 20.769 32.2746L24.1602 26.8969C24.587 26.1978 24.8163 25.3957 24.8241 24.5764V24.5095L23.7586 17.5469L24.69 17.4131C24.6367 17.8493 24.7155 18.2915 24.9165 18.6825C25.1174 19.0734 25.4311 19.3948 25.8172 19.6051L31.1948 22.9859C31.8933 23.4146 32.6957 23.6443 33.5154 23.6498H33.6491L39.5566 22.7236L39.6905 24.4474ZM12.3447 18.0767H12.0772C11.2796 18.0767 10.5333 17.5621 10.5333 17.0116C10.5937 16.536 10.9352 16.1439 11.3978 16.0185L13.3891 15.154L23.6815 10.7077L25.4105 9.97694C26.2418 9.69523 27.1388 9.67197 27.9837 9.91006L37.8841 12.8331L39.2787 21.4632L33.3195 22.3226C32.7671 22.3487 32.2224 22.1853 31.7759 21.8593L26.4138 18.4733C26.2096 18.3787 26.0523 18.2055 25.9777 17.9933C25.903 17.7814 25.9176 17.5478 26.0174 17.3462C26.0852 17.2205 26.1738 17.1075 26.2797 17.0118C26.5621 16.7999 26.8971 16.6694 27.2483 16.6348C27.5994 16.6002 27.9535 16.6632 28.2714 16.8164L33.5822 19.5385C33.7285 19.6347 33.9101 19.6603 34.0774 19.6086C34.2448 19.5566 34.3801 19.4328 34.4467 19.271C34.5378 19.1127 34.5607 18.924 34.5103 18.7486C34.4599 18.5728 34.3404 18.4252 34.1789 18.3396L28.8684 15.6224C28.3396 15.3646 27.7516 15.2528 27.1652 15.299C26.5789 15.3449 26.0155 15.5474 25.5337 15.885L22.8785 16.2863L13.6977 17.8095L12.3447 18.0767ZM46.8584 41.9076L32.9179 47.944C32.0877 48.2309 31.1889 48.2541 30.3448 48.0108L20.4386 45.093L19.044 36.4629L24.9515 35.5315H24.9518C25.5032 35.5183 26.0444 35.6824 26.4954 36L31.873 39.3808C32.0775 39.4764 32.2348 39.6505 32.3094 39.8634C32.384 40.0766 32.3695 40.3105 32.2694 40.5128C32.2015 40.6368 32.1127 40.7483 32.0067 40.8423C31.7253 41.0552 31.3903 41.1864 31.0392 41.2219C30.688 41.2571 30.3339 41.1954 30.0154 41.0429L24.6891 38.3208C24.5392 38.2339 24.3603 38.2116 24.1936 38.2594C24.0269 38.3076 23.887 38.421 23.8056 38.5741C23.7245 38.7276 23.7093 38.9072 23.7632 39.0719C23.8175 39.2367 23.9361 39.3724 24.0924 39.4477L29.4032 42.1697H29.4029C29.8594 42.383 30.3556 42.4967 30.8592 42.5044C31.5331 42.5122 32.1918 42.3028 32.7375 41.9074L35.3927 41.5062L45.8803 39.8492C46.7396 39.7155 47.6041 40.2456 47.6041 40.9091C47.7379 41.3724 47.4035 41.7068 46.8734 41.9074L46.8584 41.9076Z" fill="white" stroke="white" stroke-width="21.7096" mask="url(#path-1-inside-1_492_2517)"/>
</svg>
